<svg width="1072" height="783" viewBox="0 0 1072 783" fill="none" xmlns="http://www.w3.org/2000/svg">
<mask id="mask0_2003_392" style="mask-type:luminance" maskUnits="userSpaceOnUse" x="0" y="0" width="1072" height="783">
<path d="M1071.81 0H0V782.7H1071.81V0Z" fill="white"/>
</mask>
<g mask="url(#mask0_2003_392)">
<path d="M862.99 87.6611H209.842C185.935 87.6611 166.553 107.042 166.553 130.95V544.478C166.553 568.386 185.935 587.767 209.842 587.767H862.99C886.9 587.767 906.28 568.386 906.28 544.478V130.95C906.28 107.042 886.9 87.6611 862.99 87.6611Z" fill="url(#paint0_linear_2003_392)"/>
<path d="M216.056 87.6609H857.83C870.82 87.6609 883.28 92.8209 892.46 102.005C901.65 111.189 906.81 123.646 906.81 136.634H167.083C167.083 123.646 172.242 111.189 181.427 102.005C190.611 92.8209 203.067 87.6609 216.056 87.6609Z" fill="#CBD3EE"/>
<path d="M556.489 167.718H858.62C863.8 167.718 868.78 169.777 872.44 173.442C876.11 177.108 878.17 182.079 878.17 187.263V336.611C878.17 341.794 876.11 346.766 872.44 350.431C868.78 354.096 863.8 356.155 858.62 356.155H556.489C551.306 356.155 546.335 354.096 542.669 350.431C539.004 346.766 536.945 341.794 536.945 336.611V187.263C536.945 184.696 537.45 182.155 538.432 179.783C539.415 177.412 540.854 175.257 542.669 173.443C544.484 171.628 546.639 170.188 549.01 169.206C551.381 168.224 553.923 167.718 556.489 167.718Z" stroke="#5661AE" stroke-miterlimit="10" stroke-dasharray="11.93 11.93"/>
<path d="M777.523 383.779H475.391C464.597 383.779 455.847 392.529 455.847 403.324V552.672C455.847 563.466 464.597 572.216 475.391 572.216H777.523C788.317 572.216 797.068 563.466 797.068 552.672V403.324C797.068 392.529 788.317 383.779 777.523 383.779Z" fill="white"/>
<path d="M419.238 383.779H208.118C198.987 383.779 191.585 391.181 191.585 400.313V555.683C191.585 564.814 198.987 572.216 208.118 572.216H419.238C428.369 572.216 435.771 564.814 435.771 555.683V400.313C435.771 391.181 428.369 383.779 419.238 383.779Z" fill="white"/>
<path d="M483.651 520.815C483.651 520.815 506.296 518.43 519.911 528.623C538.172 542.292 552.879 552.844 572.292 519.247C593.559 482.438 596.902 469.582 612.417 469.43C632.331 469.236 640.105 522.316 676.824 526.067C713.542 529.818 738.509 523.816 738.509 523.816" stroke="#484FA9" stroke-width="10" stroke-miterlimit="10" stroke-linecap="round"/>
<path d="M483.651 414.878H536.415" stroke="#484FA9" stroke-width="16" stroke-miterlimit="10" stroke-linecap="round"/>
<path d="M483.651 439.503H592.693" stroke="#D4DCF4" stroke-width="16" stroke-miterlimit="10" stroke-linecap="round"/>
<path d="M211.835 123.223C216.457 123.223 220.204 119.476 220.204 114.855C220.204 110.233 216.457 106.486 211.835 106.486C207.214 106.486 203.467 110.233 203.467 114.855C203.467 119.476 207.214 123.223 211.835 123.223Z" fill="white"/>
<path d="M240.195 123.223C244.817 123.223 248.563 119.476 248.563 114.855C248.563 110.233 244.817 106.486 240.195 106.486C235.573 106.486 231.827 110.233 231.827 114.855C231.827 119.476 235.573 123.223 240.195 123.223Z" fill="white"/>
<path d="M267.746 123.223C272.368 123.223 276.114 119.476 276.114 114.855C276.114 110.233 272.368 106.486 267.746 106.486C263.124 106.486 259.377 110.233 259.377 114.855C259.377 119.476 263.124 123.223 267.746 123.223Z" fill="white"/>
<path d="M708.038 295.798C726.739 295.798 741.9 280.638 741.9 261.937C741.9 243.235 726.739 228.075 708.038 228.075C689.337 228.075 674.176 243.235 674.176 261.937C674.176 280.638 689.337 295.798 708.038 295.798Z" fill="#484FA9"/>
<path d="M710.711 245.938C710.711 244.462 709.514 243.265 708.038 243.265C706.562 243.265 705.365 244.462 705.365 245.938V280.083C705.365 281.559 706.562 282.756 708.038 282.756C709.514 282.756 710.711 281.559 710.711 280.083V245.938Z" fill="white"/>
<path d="M725.111 265.683C726.587 265.683 727.783 264.486 727.783 263.01C727.783 261.534 726.587 260.337 725.111 260.337H690.966C689.489 260.337 688.293 261.534 688.293 263.01C688.293 264.486 689.489 265.683 690.966 265.683H725.111Z" fill="white"/>
<path d="M532.103 782.7C825.98 782.7 1064.21 776.614 1064.21 769.106C1064.21 761.598 825.98 755.512 532.103 755.512C238.231 755.512 0 761.598 0 769.106C0 776.614 238.231 782.7 532.103 782.7Z" fill="#F5F8FF"/>
<path d="M998.77 502.123H626.457V765.136H998.77V502.123Z" fill="#484FA9"/>
<path d="M775.191 502.123H626.457V765.136H775.191V502.123Z" fill="url(#paint1_linear_2003_392)"/>
<path d="M91.1707 666.281L75.8917 764.4L70.0747 763.494C68.1117 763.188 66.3507 762.115 65.1787 760.511C64.0067 758.907 63.5197 756.903 63.8257 754.94L76.7997 671.624C77.1057 669.661 78.1787 667.9 79.7827 666.728C81.3867 665.556 83.3907 665.069 85.3537 665.375L91.1707 666.281Z" fill="#2E2F61"/>
<path d="M138.924 682.794L115.034 675.646L107.439 708.93L133.576 717.136L138.924 682.794Z" fill="#BC775C"/>
<path d="M122.485 713.654L118.068 712.268L128.919 679.801L132.953 681.008L122.485 713.654Z" fill="#93523E"/>
<path d="M118.063 676.118C118.063 676.118 108.703 692.381 113.861 710.947L81.705 763.516C78.91 765.558 74.663 764.347 72.303 763.091C71.787 762.813 71.37 762.381 71.111 761.855C70.851 761.33 70.761 760.736 70.854 760.157L84.724 671.092C84.954 669.605 85.759 668.268 86.964 667.369C88.17 666.469 89.68 666.079 91.171 666.281C97.135 667.09 106.212 668.397 109.782 669.314C115.3 670.73 118.21 672.737 118.063 676.118Z" fill="#1C85E8"/>
<path d="M107.449 722.112L102.728 714.583C102.555 714.308 102.318 714.079 102.036 713.918C101.755 713.756 101.438 713.666 101.114 713.655C100.789 713.645 100.467 713.714 100.176 713.858C99.8849 714.001 99.6329 714.214 99.4429 714.477C99.2109 714.8 99.081 715.185 99.07 715.583C99.06 715.981 99.17 716.372 99.385 716.707L105.279 725.856L107.449 722.112Z" fill="white"/>
<path d="M102.097 730.178L97.4224 722.666C97.2494 722.391 97.0124 722.162 96.7314 722.001C96.4494 721.839 96.1324 721.749 95.8084 721.739C95.4834 721.728 95.1614 721.798 94.8704 721.941C94.5794 722.084 94.3274 722.297 94.1384 722.56C93.9054 722.883 93.7754 723.268 93.7654 723.666C93.7544 724.064 93.8644 724.456 94.0794 724.79L99.8494 733.854L102.097 730.178Z" fill="white"/>
<path d="M96.5495 739.246L91.9605 731.788C91.7885 731.513 91.5505 731.285 91.2695 731.123C90.9875 730.961 90.6705 730.871 90.3465 730.861C90.0225 730.85 89.7005 730.92 89.4085 731.063C89.1175 731.206 88.8665 731.419 88.6765 731.682C88.4435 732.005 88.3135 732.391 88.3035 732.788C88.2925 733.186 88.4025 733.578 88.6185 733.912L94.3605 742.826L96.5495 739.246Z" fill="white"/>
<path d="M353.81 751.758H453.111V757.645C453.111 758.629 452.917 759.603 452.541 760.511C452.165 761.42 451.613 762.246 450.917 762.941C450.222 763.637 449.396 764.189 448.487 764.565C447.579 764.942 446.605 765.135 445.621 765.135H361.3C359.314 765.135 357.409 764.346 356.004 762.941C354.599 761.537 353.81 759.632 353.81 757.645V751.758Z" fill="#2E2F61"/>
<path d="M362.779 702.033L359.392 726.737L393.449 729.121L397.535 702.033H362.779Z" fill="#BC775C"/>
<path d="M397.182 704.373L396.31 710.154L361.337 712.55L362.458 704.373H397.182Z" fill="#93523E"/>
<path d="M359.392 723.672C359.392 723.672 376.902 730.419 394.453 722.466L451.344 746.15C453.792 748.597 453.249 752.98 452.37 755.505C452.175 756.058 451.812 756.536 451.333 756.874C450.853 757.211 450.281 757.391 449.694 757.388H359.555C358.051 757.389 356.607 756.8 355.532 755.747C354.458 754.694 353.84 753.262 353.81 751.758C353.692 745.74 353.587 736.571 353.943 732.902C354.494 727.231 356.029 724.047 359.392 723.672Z" fill="#1C85E8"/>
<path d="M406.472 727.083L399.758 732.907C399.513 733.119 399.324 733.389 399.208 733.692C399.091 733.995 399.051 734.322 399.091 734.644C399.13 734.966 399.248 735.274 399.435 735.539C399.621 735.805 399.87 736.021 400.159 736.168C400.514 736.348 400.915 736.417 401.31 736.366C401.704 736.316 402.074 736.147 402.372 735.882L410.505 728.652L406.472 727.083Z" fill="white"/>
<path d="M415.265 731.13L408.562 736.906C408.316 737.118 408.127 737.388 408.011 737.691C407.894 737.994 407.854 738.321 407.894 738.643C407.933 738.965 408.052 739.273 408.238 739.538C408.424 739.804 408.673 740.02 408.963 740.167C409.317 740.347 409.718 740.416 410.113 740.365C410.507 740.314 410.878 740.146 411.175 739.881L419.243 732.786L415.265 731.13Z" fill="white"/>
<path d="M425.078 735.215L418.414 740.898C418.169 741.11 417.98 741.38 417.864 741.683C417.747 741.986 417.707 742.313 417.747 742.635C417.786 742.957 417.904 743.265 418.091 743.531C418.277 743.796 418.526 744.012 418.815 744.159C419.17 744.339 419.571 744.408 419.966 744.357C420.36 744.307 420.73 744.138 421.028 743.873L428.952 736.828L425.078 735.215Z" fill="white"/>
<path d="M304.289 378.257L324.869 337.737C324.869 337.737 312.34 339.374 310.157 331.598C307.973 323.821 369.367 316.863 369.367 316.863C369.367 316.863 364.455 334.054 357.088 336.1L336.828 395.447L304.289 378.257Z" fill="#BC775C"/>
<path d="M307.355 372.221L339.501 387.62L336.828 395.447L305.589 375.699L307.355 372.221Z" fill="#93523E"/>
<path d="M503.356 161.407L207.439 209.849C202.362 210.68 198.919 215.47 199.751 220.548L219.074 338.586C219.905 343.663 224.695 347.106 229.773 346.275L525.689 297.832C530.767 297.001 534.209 292.211 533.378 287.133L514.055 169.095C513.224 164.018 508.434 160.575 503.356 161.407Z" fill="#FEAF01"/>
<path d="M352.14 235.417L472.403 215.729" stroke="white" stroke-width="16.5208" stroke-miterlimit="10" stroke-linecap="round"/>
<path opacity="0.7" d="M360.684 271.933L439.135 259.09" stroke="white" stroke-width="16.5208" stroke-miterlimit="10" stroke-linecap="round"/>
<path d="M280.252 315.958C303.743 315.958 322.786 296.915 322.786 273.425C322.786 249.934 303.743 230.891 280.252 230.891C256.762 230.891 237.719 249.934 237.719 273.425C237.719 296.915 256.762 315.958 280.252 315.958Z" stroke="#FF8C02" stroke-width="16.5208" stroke-miterlimit="10"/>
<path d="M322.227 266.553C323.586 274.855 322.453 283.373 318.971 291.031C315.489 298.689 309.814 305.142 302.664 309.575C295.514 314.007 287.21 316.22 278.803 315.934C270.395 315.647 262.262 312.874 255.431 307.964C248.599 303.055 243.377 296.23 240.425 288.353C237.472 280.476 236.922 271.9 238.843 263.71C240.764 255.52 245.071 248.084 251.219 242.341C257.367 236.599 265.079 232.809 273.381 231.45" stroke="white" stroke-width="16.5208" stroke-miterlimit="10" stroke-linecap="round"/>
<path d="M294.112 591.926L306.387 730.86C306.387 760.642 276 764.03 266.272 760.52C252.551 755.569 119.655 721.737 119.655 721.737L133.739 678.601L235.737 692.778C235.737 692.778 232.948 663.833 205.596 575.448L294.112 591.926Z" fill="#474575"/>
<path d="M214.709 606.062L297.412 629.283L292.762 573.494L205.596 575.448L214.709 606.062Z" fill="#2E2F61"/>
<path d="M292.911 287.531C292.911 287.531 309.289 306.123 314.158 313.648C319.028 321.173 319.202 335.932 309.021 339.694C298.841 343.457 290.513 344.089 275.648 341.313C264.083 339.153 249.089 320.066 253.516 310.328C257.942 300.59 278.525 282.884 292.911 287.531Z" fill="#BC775C"/>
<path d="M296.01 339.542L293.575 370.97L257.942 363.224L273.878 333.567L296.01 339.542Z" fill="#BC775C"/>
<path d="M296.01 342.813H286.322L294.61 357.611" fill="#93523E"/>
<path d="M253.959 361.232L259.273 356.084C259.963 355.415 260.81 354.931 261.736 354.677C262.662 354.422 263.637 354.404 264.572 354.626L293.709 361.526C294.411 361.692 295.057 362.038 295.586 362.528C296.114 363.019 296.506 363.638 296.724 364.325L298.83 370.97L253.959 361.232Z" fill="url(#paint2_linear_2003_392)"/>
<path d="M207.81 520.13L202.594 545.399C196.722 583.947 224.359 609.445 266.598 602.496C304.32 596.29 416.059 552.967 416.059 552.967L411.606 484.402L317.669 499.9C317.669 499.9 233.235 484.257 207.81 520.13Z" fill="#474575"/>
<path d="M418.603 544.363C435.386 544.363 448.991 530.758 448.991 513.976C448.991 497.193 435.386 483.588 418.603 483.588C401.821 483.588 388.216 497.193 388.216 513.976C388.216 530.758 401.821 544.363 418.603 544.363Z" fill="#5661AE"/>
<path d="M418.603 544.363C435.386 544.363 448.991 530.758 448.991 513.976C448.991 497.193 435.386 483.588 418.603 483.588C401.821 483.588 388.216 497.193 388.216 513.976C388.216 530.758 401.821 544.363 418.603 544.363Z" fill="#474575"/>
<path d="M276 762.12C292.783 762.12 306.387 748.515 306.387 731.733C306.387 714.95 292.783 701.345 276 701.345C259.218 701.345 245.613 714.95 245.613 731.733C245.613 748.515 259.218 762.12 276 762.12Z" fill="#474575"/>
<path d="M447.508 522.757L404.79 704.373H353.699L388.216 513.976L447.508 522.757Z" fill="#474575"/>
<path d="M317.669 499.901L205.157 534.916L207.81 520.13L317.669 499.901Z" fill="#2E2F61"/>
<path d="M342.917 397.306L354.096 405.439L391.425 344.167C391.425 344.167 386.455 324.098 386.113 320.681L398.259 318.949C398.259 318.949 408.096 300.408 410.901 296.74C413.705 293.073 416.941 293.72 418.667 296.74C418.667 296.74 424.06 297.603 424.923 304.938C424.923 304.938 429.669 306.017 431.61 315.508C431.61 315.508 435.709 319.823 434.846 324.569C433.983 329.315 423.197 347.915 421.471 349.833C420.142 351.397 418.917 353.046 417.804 354.77L381.851 440.923C381.851 440.923 373.066 459.767 352.478 452.62L326.954 440.791C315.238 433.2 342.917 397.306 342.917 397.306Z" fill="#BC775C"/>
<path d="M361.732 454.848C373.599 454.848 383.22 445.227 383.22 433.36C383.22 421.492 373.599 411.871 361.732 411.871C349.864 411.871 340.243 421.492 340.243 433.36C340.243 445.227 349.864 454.848 361.732 454.848Z" fill="#BC775C"/>
<path d="M271.664 303.024C271.664 303.024 292.69 295.942 296.895 281.113C301.1 266.284 292.248 258.538 280.739 266.063C280.739 266.063 272.55 253.005 258.606 262.079C244.663 271.154 247.319 292.622 247.762 296.827C247.762 296.827 232.048 307.893 239.573 325.378C247.098 342.862 267.746 347.067 267.746 347.067C270.025 343.792 271.656 340.111 272.55 336.223C272.55 336.223 261.171 327.591 267.746 319.181C274.32 310.77 281.845 324.271 281.845 324.271C281.845 324.271 287.6 305.237 271.664 303.024Z" fill="#484FA9"/>
<path d="M253.959 361.232C253.959 361.232 239.362 368.49 236.056 376.306C233 383.528 211.748 478.386 205.24 516.571C205.084 517.477 205.154 518.407 205.442 519.279C205.73 520.152 206.229 520.94 206.893 521.575C207.557 522.21 208.367 522.672 209.252 522.92C210.136 523.169 211.068 523.196 211.966 523L317.669 499.9C317.669 499.9 312.499 444.346 314.311 428.042C316.122 411.738 298.83 370.97 298.83 370.97L253.959 361.232Z" fill="url(#paint3_linear_2003_392)"/>
<path d="M313.936 435.729L287.287 419.892L315.016 465.507L313.936 435.729Z" fill="#CBD3EE"/>
<path d="M354.096 405.438L361.856 410.847L369.367 380.373L354.096 405.438Z" fill="#93523E"/>
<path d="M298.83 370.97C298.83 370.97 341.245 394.157 346.395 397.959C347.063 398.452 347.532 399.167 347.719 399.975C347.906 400.784 347.798 401.632 347.414 402.368L327.933 439.771C327.715 440.191 327.413 440.562 327.045 440.861C326.678 441.16 326.254 441.382 325.799 441.511C325.343 441.641 324.866 441.676 324.396 441.615C323.927 441.554 323.475 441.397 323.067 441.155L273.629 411.775C273.629 411.775 270.999 372.667 298.83 370.97Z" fill="url(#paint4_linear_2003_392)"/>
<path d="M293.419 315.42C294.435 314.661 294.32 312.788 293.162 311.237C292.003 309.685 290.24 309.043 289.224 309.802C288.207 310.561 288.323 312.434 289.481 313.985C290.639 315.536 292.402 316.179 293.419 315.42Z" fill="#080B09"/>
<path d="M307.357 304.873C308.373 304.114 308.258 302.241 307.1 300.69C305.941 299.138 304.178 298.496 303.162 299.255C302.145 300.014 302.261 301.887 303.419 303.438C304.577 304.989 306.34 305.632 307.357 304.873Z" fill="#080B09"/>
<path d="M301.714 307.762C301.714 307.762 301.473 312.35 304.284 311.142C306.929 309.896 309.189 310.754 307.532 314.236" stroke="#93523E" stroke-width="1.20877" stroke-linecap="round" stroke-linejoin="round"/>
<path d="M308.461 317.51C306.865 318.379 303.672 320.115 301.565 321.306C301.438 321.377 301.332 321.48 301.26 321.606C301.188 321.733 301.151 321.876 301.155 322.021C301.158 322.167 301.202 322.308 301.28 322.431C301.358 322.553 301.469 322.652 301.599 322.716C304.554 323.992 310.882 325.85 309.554 318.106C309.553 317.979 309.518 317.855 309.453 317.746C309.387 317.637 309.294 317.548 309.183 317.487C309.071 317.427 308.946 317.397 308.819 317.401C308.692 317.405 308.569 317.443 308.461 317.51Z" fill="white"/>
<path d="M281.432 310.834L281.728 311.076C282.129 311.466 282.668 311.682 283.227 311.676C283.786 311.67 284.321 311.443 284.713 311.045L291.283 304.022C291.615 303.695 291.812 303.256 291.835 302.791C291.858 302.325 291.706 301.868 291.408 301.51C291.236 301.282 291.018 301.093 290.768 300.956C290.517 300.818 290.24 300.736 289.956 300.713C289.671 300.691 289.385 300.729 289.116 300.825C288.847 300.922 288.601 301.074 288.396 301.272L281.53 308.053C281.337 308.227 281.181 308.438 281.071 308.673C280.961 308.908 280.9 309.163 280.891 309.423C280.881 309.682 280.925 309.941 281.018 310.184C281.111 310.426 281.251 310.647 281.432 310.834Z" fill="#080B09"/>
<path d="M305.309 290.905L296.274 294.295C296.008 294.399 295.767 294.558 295.567 294.761C295.367 294.965 295.212 295.209 295.113 295.477C295.014 295.745 294.973 296.031 294.993 296.316C295.013 296.601 295.093 296.878 295.228 297.13C295.428 297.55 295.779 297.88 296.211 298.054C296.643 298.228 297.125 298.233 297.561 298.069L306.691 295.049C307.217 294.86 307.647 294.47 307.887 293.964C308.126 293.459 308.157 292.879 307.971 292.352L307.875 291.982C307.781 291.739 307.639 291.519 307.458 291.333C307.277 291.147 307.06 290.999 306.821 290.899C306.581 290.798 306.324 290.747 306.064 290.748C305.805 290.749 305.548 290.803 305.309 290.905Z" fill="#080B09"/>
<path d="M998.77 136.634L920.67 197.372H1071.81L998.77 136.634Z" fill="#FEAF01"/>
<path d="M751.491 448.565C751.491 448.565 722.851 423.564 699.566 444.81C676.28 466.055 580.074 611.949 580.074 611.949L609.172 632.072L718.302 509.344L737.298 539.92L751.491 448.565Z" fill="#FCBA9F"/>
<path fill-rule="evenodd" clip-rule="evenodd" d="M732.006 727.723C744.002 718.957 756.367 709.921 769.388 707.003C769.681 706.936 769.985 706.934 770.28 706.996C770.574 707.058 770.851 707.184 771.092 707.364C771.333 707.544 771.532 707.774 771.675 708.039C771.818 708.304 771.902 708.596 771.92 708.896L773.347 733.054C773.376 733.552 773.225 734.043 772.92 734.437C772.615 734.832 772.178 735.102 771.689 735.198L682.492 752.828C675.915 754.128 671.697 751.268 669.674 746.189C669.608 746.014 669.594 745.823 669.633 745.64C669.672 745.457 669.764 745.289 669.896 745.156C670.029 745.024 670.197 744.932 670.38 744.893C670.563 744.853 670.754 744.867 670.929 744.933C682.646 749.237 695.582 748.786 706.97 743.674C715.198 740.006 723.509 733.932 732.006 727.723Z" fill="#5661AE"/>
<path fill-rule="evenodd" clip-rule="evenodd" d="M759.379 648.577C759.379 648.577 761.068 686.705 761.958 690.584C762.57 692.704 763.338 694.776 764.254 696.783C765.783 700.427 767.486 704.488 767.642 707.439C755.261 710.737 743.465 719.355 732.007 727.727C723.51 733.935 715.2 740.006 706.971 743.674C696.133 748.538 683.871 749.193 672.576 745.51C671.025 738.919 675.527 731.623 686.884 728.336C707.24 722.445 718.364 718.711 725.462 701.685C730.506 689.586 722.058 647.465 722.058 647.465L759.379 648.577Z" fill="#FFCCB3"/>
<path fill-rule="evenodd" clip-rule="evenodd" d="M726.353 695.248C730.356 695.002 746.26 693.955 761.486 691.964C764.445 691.578 767.086 697.135 765.822 700.67C764.995 703.251 764.377 705.895 763.975 708.576C759.007 710.392 754.241 712.717 749.751 715.514C750.672 709.215 746.83 706.426 741.122 706.713C736.613 706.94 726.428 709.804 721.177 711.359C720.888 711.444 720.581 711.444 720.293 711.361C720.004 711.277 719.745 711.112 719.546 710.886C719.348 710.66 719.218 710.382 719.173 710.084C719.128 709.787 719.168 709.483 719.29 709.208L725.008 696.189C725.124 695.923 725.311 695.695 725.548 695.529C725.786 695.363 726.064 695.266 726.353 695.248Z" fill="white"/>
<path fill-rule="evenodd" clip-rule="evenodd" d="M684.236 747.758C694.598 748.569 700.866 745.875 700.866 745.875L696.696 724.78L680.483 728.769L684.236 747.758Z" fill="white"/>
<path fill-rule="evenodd" clip-rule="evenodd" d="M554.3 651.563C569.116 652.667 584.388 653.806 596.193 660.027C596.46 660.166 596.693 660.362 596.877 660.6C597.061 660.838 597.19 661.113 597.257 661.407C597.324 661.7 597.326 662.004 597.263 662.298C597.2 662.593 597.074 662.87 596.894 663.11L582.316 682.427C582.016 682.825 581.582 683.1 581.094 683.203C580.607 683.305 580.098 683.228 579.664 682.984L500.327 638.571C494.477 635.296 493.12 630.383 494.873 625.205C494.936 625.029 495.049 624.875 495.198 624.761C495.347 624.647 495.525 624.578 495.712 624.563C495.899 624.548 496.086 624.587 496.251 624.676C496.416 624.764 496.552 624.899 496.643 625.063C502.772 635.937 512.913 643.981 524.897 647.473C533.54 650.016 543.805 650.781 554.3 651.563Z" fill="#2E2F61"/>
<path fill-rule="evenodd" clip-rule="evenodd" d="M626.457 609.057L601.183 642.709C600.275 644.72 599.516 646.795 598.912 648.918C597.713 652.684 596.376 656.879 594.582 659.227C583.017 653.71 568.449 652.623 554.298 651.566C543.804 650.783 533.541 650.017 524.898 647.474C513.493 644.149 503.734 636.697 497.523 626.57C500.615 620.547 508.774 617.911 519.551 622.773C538.868 631.487 549.758 635.857 566.2 627.497C568.85 625.937 571.225 623.951 573.229 621.62L598.765 584.012L626.457 609.057Z" fill="#FCBA9F"/>
<path fill-rule="evenodd" clip-rule="evenodd" d="M571.053 623.175C574.26 625.583 587.046 635.097 599.929 643.454C602.432 645.079 600.839 651.022 597.585 652.894C595.282 654.322 593.097 655.934 591.053 657.715C586.094 655.876 580.957 654.556 575.726 653.774C580.511 649.576 579.395 644.961 574.862 641.479C571.283 638.728 561.672 634.304 556.666 632.083C556.391 631.961 556.157 631.762 555.992 631.511C555.826 631.26 555.736 630.967 555.731 630.666C555.727 630.365 555.809 630.069 555.967 629.813C556.125 629.558 556.353 629.352 556.625 629.222L569.419 623.018C569.679 622.891 569.97 622.839 570.258 622.866C570.546 622.894 570.821 623.001 571.053 623.175Z" fill="white"/>
<path fill-rule="evenodd" clip-rule="evenodd" d="M504.942 635.842C512.305 643.178 518.823 645.191 518.823 645.191L529.327 626.427L514.397 618.952L504.942 635.842Z" fill="white"/>
<path d="M790.766 430.425L715.25 443.841L730.114 503.618H778.486C778.486 503.618 801.48 454.195 790.766 430.425Z" fill="#FFCCB3"/>
<path d="M724.929 503.033C741.711 503.033 755.316 489.429 755.316 472.646C755.316 455.864 741.711 442.259 724.929 442.259C708.146 442.259 694.541 455.864 694.541 472.646C694.541 489.429 708.146 503.033 724.929 503.033Z" fill="#FFCCB3"/>
<path d="M694.918 477.434L725.325 667.826L760.397 669.29L756.302 481.087L694.918 477.434Z" fill="#FFCCB3"/>
<path d="M742.553 435.662C742.553 435.662 754.191 439.246 758.995 458.228C763.799 477.209 758.557 503.618 758.557 503.618H766.041C766.041 503.618 792.725 472.282 773.093 432.345L742.553 435.662Z" fill="#FF967C"/>
<path d="M815.978 272.847L806.473 277.407C802.828 279.156 799.615 281.688 797.062 284.822C794.509 287.957 792.679 291.616 791.704 295.539L770.217 381.995L721.775 405.157L732.819 422.698L824.41 419.45L815.978 272.847Z" fill="#474575"/>
<path d="M802.29 303.97C802.29 303.97 785.611 327.403 793.682 349.721C801.753 372.04 798.458 376.178 796.439 395.951C794.421 415.723 801.012 411.125 801.012 411.125L824.41 400.089C824.41 400.089 834.17 306.56 802.29 303.97Z" fill="#2E2F61"/>
<path d="M900.42 411.589C900.42 411.589 909.67 456.845 897.55 475.757C882.21 499.695 863.45 503.361 849.58 503.618H758.557C758.557 503.618 758.389 446.831 713.547 437.129C713.547 437.129 861.13 396.026 900.42 411.589Z" fill="#1F2D49"/>
<path d="M902.46 424.767L805.994 427.943L807.02 421.205L825.82 419.032H902.32L902.46 424.767Z" fill="#0D1B33"/>
<path d="M777.698 403.562C777.698 403.562 765.896 406.992 760.595 408.551C755.294 410.11 744.812 413.853 744.812 413.853L752.487 424.767L787.269 422.698L777.698 403.562Z" fill="#FFCCB3"/>
<path d="M834.88 264.776C834.88 264.776 815.074 272.614 812.049 275.033C809.025 277.453 806.154 297.199 801.012 306.575C795.871 315.951 788.349 333.256 799.335 349.151C810.321 365.047 809.153 377.669 809.153 377.669L806.815 417.543L898.459 420.331C899.289 420.357 900.12 420.206 900.89 419.887C901.66 419.569 902.36 419.091 902.93 418.484C903.5 417.877 903.939 417.155 904.209 416.367C904.479 415.579 904.58 414.742 904.51 413.911C903.46 402.285 901.69 384.917 901.31 366.405C900.8 341.317 900.42 257.488 900.42 257.488L859.17 256.194C850.87 257.626 834.88 264.776 834.88 264.776Z" fill="#474575"/>
<path d="M900.42 301.995C912.71 301.995 922.67 292.032 922.67 279.742C922.67 267.452 912.71 257.488 900.42 257.488C888.13 257.488 878.17 267.452 878.17 279.742C878.17 292.032 888.13 301.995 900.42 301.995Z" fill="#474575"/>
<path d="M903.42 404.717C903.42 404.717 901.52 411.674 881.17 419.805C881.17 419.805 833.46 418.768 809.757 419.266C786.054 419.765 812.298 413.512 825.53 406.915C838.76 400.318 901.92 381.995 901.92 381.995L903.42 404.717Z" fill="#2E2F61"/>
<path d="M884.189 291.756C884.189 291.756 870.389 304.336 869.579 313.67C868.759 323.004 866.89 349.03 849.16 351.626C827.42 354.808 821.729 357.906 831.809 360.341C841.879 362.776 864.749 358.83 864.749 369.269C864.749 376.697 873.629 382.255 878.099 378.197C882.559 374.139 918.119 312.453 884.189 291.756Z" fill="#2E2F61"/>
<path d="M922.43 282.998C920.56 291.928 902.76 386.008 902.76 386.008C902.76 386.008 900.42 400.082 886.67 403.562L790.766 427.943L773.891 402.63L860.87 372.884L878.17 279.742C878.17 279.742 924.93 271.085 922.43 282.998Z" fill="#474575"/>
<path d="M832.65 247.45L833.56 278.323C833.56 278.323 833.32 283.649 839.78 282.931C846.25 282.213 859.26 277.379 862.85 271.154C866.44 264.928 864.17 262.793 864.17 262.793L844.44 224.332L832.65 247.45Z" fill="#FFCCB3"/>
<path d="M832.65 251.038L840.73 241.459L833.34 270.929L832.65 251.038Z" fill="#FF967C"/>
<path d="M839.849 171.35C839.499 165.46 840.78 159.587 843.56 154.38C848.16 146.072 857.699 134.582 872.199 139.532C886.689 144.481 897.299 155.618 891.819 171.35C886.339 187.083 871.12 192.117 863.36 190.441C855.6 188.765 839.849 171.35 839.849 171.35Z" fill="#080B09"/>
<path d="M835.18 173.538C836.02 172.13 837.26 171.015 838.76 170.345C840.25 169.675 841.91 169.483 843.52 169.796C849.26 170.852 855.29 175.381 860.43 180.814C865.56 186.248 865.39 190.192 863.06 192.597C860.73 195.003 835.18 173.538 835.18 173.538Z" fill="#FEBB94"/>
<path d="M708.038 331.055L744.812 432.935H818.75C818.75 429.824 817.51 426.84 815.314 424.641C813.115 422.441 810.131 421.205 807.02 421.205H753.529L721.775 331.055H708.038Z" fill="white"/>
<path d="M708.038 331.055H608.836L647.201 432.935H744.812L708.038 331.055Z" fill="#D4DCF4"/>
<path d="M676.824 394.022C681.765 394.022 685.77 390.016 685.77 385.075C685.77 380.135 681.765 376.129 676.824 376.129C671.883 376.129 667.878 380.135 667.878 385.075C667.878 390.016 671.883 394.022 676.824 394.022Z" fill="white"/>
<path d="M792.496 209.488C792.496 209.488 795.555 239.038 809.932 252.493C819.31 261.267 827.91 259.02 840.73 241.459C852.48 225.357 853.51 217.527 853.51 217.527L841.09 189.575C841.09 189.575 791.035 182.451 792.496 209.488Z" fill="#FFCCB3"/>
<path d="M797.584 203.703C797.584 203.703 804.658 214.963 817.61 215.145C820.33 217.366 823.56 218.852 827.01 219.459C830.47 220.066 834.02 219.775 837.32 218.612C837.32 218.612 832.16 210.775 837.32 208.028C846.1 203.364 849.12 218.916 844.44 224.332C841.26 228.013 844.62 232.299 846.99 236.131C849.37 239.964 857.03 249.453 857.03 249.453C857.03 249.453 856.3 243.978 859.77 239.964C863.24 235.949 874.48 194.847 853.59 179.727C832.7 164.608 810.708 176.703 806.585 179.727C806.585 179.727 784.632 183.561 784.593 206.392C784.56 225.91 798.451 230.553 798.451 230.553L794.305 214.799C794.305 214.799 796.869 215.073 797.584 203.703Z" fill="#080B09"/>
<path d="M820.93 240.101C820.93 240.101 822.55 245.166 817.05 247.519C813.333 248.741 810.737 245.102 810.737 245.102L820.93 240.101Z" fill="#E56441"/>
<path d="M801.67 232.673C802.814 232.391 803.404 230.795 802.987 229.109C802.571 227.423 801.307 226.286 800.163 226.568C799.019 226.851 798.429 228.446 798.845 230.132C799.261 231.818 800.526 232.955 801.67 232.673Z" fill="#080B09"/>
<path d="M818.63 228.742C819.77 228.46 820.36 226.865 819.95 225.179C819.53 223.493 818.27 222.355 817.12 222.638C815.978 222.92 815.388 224.516 815.805 226.201C816.22 227.887 817.49 229.025 818.63 228.742Z" fill="#080B09"/>
<path d="M795.09 223.583L803.721 221.602C803.865 221.556 803.987 221.459 804.065 221.33C804.143 221.201 804.172 221.048 804.146 220.899C804.05 220.645 803.903 220.413 803.715 220.218C803.527 220.022 803.302 219.866 803.052 219.76C802.802 219.654 802.534 219.6 802.262 219.601C801.991 219.601 801.723 219.657 801.473 219.764L794.705 222.631C794.142 222.77 794.385 223.757 795.09 223.583Z" fill="#080B09"/>
<path d="M824.07 215.858L812.829 219.38C812.754 219.029 812.753 218.667 812.827 218.315C812.9 217.964 813.047 217.632 813.257 217.341C813.466 217.05 813.735 216.806 814.045 216.624C814.355 216.443 814.699 216.329 815.056 216.289L824.04 215.118C824.32 215.049 824.49 215.753 824.07 215.858Z" fill="#080B09"/>
<path d="M807.723 227.036L806.504 236.137L809.718 237.689" stroke="#E56441" stroke-width="0.94666" stroke-linecap="round"/>
<path d="M998.77 136.634V0" stroke="#5661AE" stroke-miterlimit="10"/>
</g>
<defs>
<linearGradient id="paint0_linear_2003_392" x1="518" y1="86.4731" x2="596.214" y2="1153.53" gradientUnits="userSpaceOnUse">
<stop stop-color="white"/>
<stop offset="1" stop-color="#94B9FF"/>
</linearGradient>
<linearGradient id="paint1_linear_2003_392" x1="697.121" y1="501.498" x2="801.455" y2="1045.69" gradientUnits="userSpaceOnUse">
<stop stop-color="white"/>
<stop offset="1" stop-color="#CBD3EE"/>
</linearGradient>
<linearGradient id="paint2_linear_2003_392" x1="275.277" y1="354.433" x2="276.686" y2="389.768" gradientUnits="userSpaceOnUse">
<stop stop-color="white"/>
<stop offset="1" stop-color="#94B9FF"/>
</linearGradient>
<linearGradient id="paint3_linear_2003_392" x1="258.613" y1="360.847" x2="311.506" y2="699.887" gradientUnits="userSpaceOnUse">
<stop stop-color="white"/>
<stop offset="1" stop-color="#94B9FF"/>
</linearGradient>
<linearGradient id="paint4_linear_2003_392" x1="308.837" y1="370.802" x2="324.319" y2="520.809" gradientUnits="userSpaceOnUse">
<stop stop-color="white"/>
<stop offset="1" stop-color="#94B9FF"/>
</linearGradient>
</defs>
</svg>
