<?xml version="1.0" encoding="utf-8"?>
<!-- Generator: Adobe Illustrator 24.1.2, SVG Export Plug-In . SVG Version: 6.00 Build 0)  -->
<svg version="1.1" id="Layer_1" xmlns="http://www.w3.org/2000/svg" xmlns:xlink="http://www.w3.org/1999/xlink" x="0px" y="0px"
	 viewBox="0 0 281 316" style="enable-background:new 0 0 281 316;" xml:space="preserve">
<style type="text/css">
	.st0{opacity:0.7;fill:#FEAF01;enable-background:new    ;}
	.st1{fill:none;stroke:#FFFFFF;stroke-width:7.4328;stroke-linecap:round;stroke-miterlimit:10;}
	
		.st2{opacity:0.4;fill:none;stroke:#FFFFFF;stroke-width:7.4328;stroke-linecap:round;stroke-miterlimit:10;enable-background:new    ;}
	.st3{fill:#FFFFFF;}
</style>
<path class="st0" d="M21.3,6.2c35.2,30,127.9,98.4,245.7,101.6c2.4,0.1,4.7,1.1,6.4,2.8c1.7,1.7,2.6,4,2.6,6.5v186.6
	c0,2.4-0.9,4.7-2.6,6.4c-1.6,1.7-3.9,2.8-6.3,2.9c-35.4,1.8-169.7,1.6-258.7-93.7c-1.6-1.7-2.5-4-2.5-6.3V13.3c0-1.8,0.5-3.5,1.5-5
	c1-1.5,2.3-2.7,3.9-3.4c1.6-0.7,3.4-1,5.2-0.8C18.3,4.3,19.9,5.1,21.3,6.2z"/>
<path class="st1" d="M34.6,61.2c0,0,27.8,27,65.7,43.7"/>
<path class="st2" d="M34.6,93.9c0,0,38.6,36,88.9,49.4"/>
<path class="st3" d="M28.9,213.4v-78L56.2,155v79.8L28.9,213.4z"/>
<path class="st3" d="M75,244.9v-55.5l27.3,16.3v54.9L75,244.9z"/>
<path class="st3" d="M191.9,288.4v-55.5l-27.3-3.7V284L191.9,288.4z"/>
<path class="st3" d="M236.8,290.8v-97.2h-27.3v96.6L236.8,290.8z"/>
<path class="st3" d="M119.8,269.3v-25.4l27.3,7.7v27.6L119.8,269.3z"/>
</svg>
