<?xml version="1.0" encoding="utf-8"?>
<!-- Generator: Adobe Illustrator 24.1.2, SVG Export Plug-In . SVG Version: 6.00 Build 0)  -->
<svg version="1.1" id="Layer_1" xmlns="http://www.w3.org/2000/svg" xmlns:xlink="http://www.w3.org/1999/xlink" x="0px" y="0px"
	 viewBox="0 0 559 652" style="enable-background:new 0 0 559 652;" xml:space="preserve">
<style type="text/css">
	.st0{fill:#474575;}
	.st1{fill:#CBD3EE;}
	.st2{fill:#FFFFFF;}
	.st3{fill:url(#SVGID_1_);}
	.st4{fill:#FEAF01;}
	.st5{fill:none;stroke:#FF8C03;stroke-width:16.5208;stroke-linecap:round;stroke-miterlimit:10;}
	.st6{fill:none;stroke:#FFFFFF;stroke-width:16.5208;stroke-linecap:round;stroke-miterlimit:10;}
	.st7{fill:url(#SVGID_2_);}
	.st8{fill:none;stroke:#FFFFFF;stroke-width:10;stroke-linecap:round;stroke-miterlimit:10;}
	.st9{opacity:0.6;fill:none;stroke:#FFFFFF;stroke-width:6;stroke-linecap:round;stroke-miterlimit:10;enable-background:new    ;}
	.st10{fill:url(#SVGID_3_);}
	.st11{fill:none;stroke:#FFFFFF;stroke-width:5;stroke-linecap:round;stroke-miterlimit:10;}
	
		.st12{opacity:0.6;fill:none;stroke:#FFFFFF;stroke-width:10;stroke-linecap:round;stroke-miterlimit:10;enable-background:new    ;}
	.st13{opacity:0.5;fill:none;stroke:#FFFFFF;stroke-width:5;stroke-linecap:round;stroke-miterlimit:10;enable-background:new    ;}
	.st14{fill:none;stroke:#FFFFFF;stroke-width:6.5041;stroke-linecap:round;stroke-linejoin:round;}
	.st15{fill:#2E2F61;}
</style>
<path class="st0" d="M379,646.9h-241c-19.5,0-32.7-15.8-29.4-35.4l97-572.4c3.3-19.5,21.8-35.4,41.4-35.4h241
	c19.5,0,32.7,15.8,29.4,35.4l-97,572.4C417.1,631,398.6,646.9,379,646.9z"/>
<path class="st1" d="M348.9,646.9H108c-19.5,0-32.7-15.8-29.4-35.4l97-572.4c3.3-19.5,21.8-35.4,41.4-35.4h241
	c19.5,0,32.7,15.8,29.4,35.4l-97,572.4C387,631,368.5,646.9,348.9,646.9z"/>
<path class="st2" d="M350.3,627.8H113.1c-10.1,0-17-8.2-15.3-18.4l96.3-568.1c1.7-10.1,11.3-18.4,21.5-18.4h237.2
	c10.1,0,17,8.2,15.3,18.4l-96.3,568.1C370.1,619.5,360.5,627.8,350.3,627.8z"/>
<linearGradient id="SVGID_1_" gradientUnits="userSpaceOnUse" x1="274.7721" y1="1011.1917" x2="293.0351" y2="701.1467" gradientTransform="matrix(1 0 0 -1 0 1080)">
	<stop  offset="0" style="stop-color:#FFFFFF"/>
	<stop  offset="1" style="stop-color:#CBD3EE"/>
</linearGradient>
<path class="st3" d="M372.8,214.3H145.9l23.6-130.6c1.5-8,9.3-14.4,17.2-14.4H401c8,0,13.2,6.5,11.6,14.4L390,199.9
	C388.5,207.9,380.7,214.3,372.8,214.3z"/>
<path class="st4" d="M354.5,197.5H14.9c-8,0-13.2-6.5-11.6-14.4L25.9,66.9c1.5-8,9.3-14.4,17.2-14.4h339.6c8,0,13.2,6.5,11.6,14.4
	l-22.6,116.2C370.2,191,362.5,197.5,354.5,197.5z"/>
<path class="st4" d="M332.8,612.9l-210.6,1c-8,0-13.2-6.5-11.6-14.4l22.6-116.2c1.5-8,9.3-14.4,17.2-14.4l210.6-1
	c8,0,13.2,6.5,11.6,14.4l-22.6,116.2C348.5,606.5,340.8,612.9,332.8,612.9z"/>
<path class="st5" d="M145.4,577.8c6-46.9,50.5-84.9,99.5-84.9c48.9,0,83.8,38,77.8,84.9"/>
<path class="st6" d="M145.4,577.8c6-46.9,50.5-84.9,99.5-84.9c24.2,0,45,9.3,59.1,24.4"/>
<linearGradient id="SVGID_2_" gradientUnits="userSpaceOnUse" x1="224.8386" y1="919.3328" x2="301.2697" y2="383.5787" gradientTransform="matrix(1 0 0 -1 0 1080)">
	<stop  offset="0" style="stop-color:#FFFFFF"/>
	<stop  offset="1" style="stop-color:#CBD3EE"/>
</linearGradient>
<path class="st7" d="M307.6,451.5H156.8c-8,0-13.5-6.5-12.2-14.6l31.9-191.6c1.3-8,8.9-14.6,17-14.6h150.8c8,0,13.5,6.5,12.2,14.6
	l-31.9,191.6C323.3,445,315.7,451.5,307.6,451.5z"/>
<path class="st2" d="M203.3,332.1h-20.6c-1.1,0-2.2,0.5-3.1,1.2c-0.9,0.7-1.4,1.7-1.7,2.9l-11.2,67.2c-0.1,0.5-0.1,1,0,1.5
	c0.1,0.5,0.4,1,0.7,1.3c0.3,0.4,0.7,0.7,1.2,0.9c0.5,0.2,1,0.3,1.5,0.3h20.6c1.1,0,2.2-0.5,3.1-1.2c0.9-0.7,1.4-1.7,1.7-2.9
	l11.2-67.2c0.1-0.5,0.1-1,0-1.5c-0.1-0.5-0.4-1-0.7-1.3c-0.3-0.4-0.7-0.7-1.2-0.9C204.3,332.1,203.8,332,203.3,332.1z"/>
<path class="st2" d="M240.8,355h-20.6c-1.1,0-2.2,0.5-3.1,1.2c-0.9,0.7-1.4,1.7-1.7,2.9l-7.3,44.2c-0.1,0.5-0.1,1,0,1.5
	s0.4,1,0.7,1.3c0.3,0.4,0.7,0.7,1.2,0.9c0.5,0.2,1,0.3,1.5,0.3h20.6c1.1,0,2.2-0.5,3.1-1.2c0.9-0.7,1.4-1.7,1.7-2.9l7.3-44.2
	c0.1-0.5,0.1-1,0-1.5c-0.1-0.5-0.4-1-0.7-1.3c-0.3-0.4-0.7-0.7-1.2-0.9C241.8,355.1,241.3,355,240.8,355z"/>
<path class="st2" d="M290.4,290.4h-20.6c-1.1,0-2.2,0.5-3.1,1.2c-0.9,0.7-1.4,1.7-1.7,2.9l-18.1,108.9c-0.1,0.5-0.1,1,0,1.5
	c0.1,0.5,0.4,1,0.7,1.3c0.3,0.4,0.7,0.7,1.2,0.9c0.5,0.2,1,0.3,1.5,0.3H271c1.1,0,2.2-0.5,3.1-1.2c0.9-0.7,1.4-1.7,1.7-2.9
	l18.1-108.9c0.1-0.5,0.1-1,0-1.5c-0.1-0.5-0.4-1-0.7-1.3s-0.7-0.7-1.2-0.9C291.5,290.5,291,290.3,290.4,290.4z"/>
<path class="st2" d="M325.8,318.6h-20.6c-1.1,0-2.2,0.5-3.1,1.2s-1.4,1.7-1.7,2.9l-13.4,80.6c-0.1,0.5-0.1,1,0,1.5
	c0.1,0.5,0.4,1,0.7,1.3c0.3,0.4,0.7,0.7,1.2,0.9c0.5,0.2,1,0.3,1.5,0.3h20.6c1.1,0,2.2-0.5,3.1-1.2c0.9-0.7,1.4-1.7,1.7-2.9
	l13.4-80.6c0.1-0.5,0.1-1,0-1.5c-0.1-0.5-0.4-1-0.7-1.3s-0.7-0.7-1.2-0.9C326.8,318.7,326.3,318.6,325.8,318.6z"/>
<path class="st8" d="M191.6,254.3h55.7"/>
<path class="st8" d="M188.4,273.2h27.8"/>
<path class="st9" d="M172.8,421h10.8"/>
<path class="st9" d="M214.1,421h10.8"/>
<path class="st9" d="M253.1,421h10.8"/>
<path class="st9" d="M293.1,421h10.8"/>
<linearGradient id="SVGID_3_" gradientUnits="userSpaceOnUse" x1="422.6694" y1="919.3327" x2="499.0994" y2="383.5787" gradientTransform="matrix(1 0 0 -1 0 1080)">
	<stop  offset="0" style="stop-color:#FFFFFF"/>
	<stop  offset="1" style="stop-color:#CBD3EE"/>
</linearGradient>
<path class="st10" d="M505.5,451.5H354.7c-8,0-13.5-6.5-12.2-14.6l31.9-191.6c1.3-8,8.9-14.6,17-14.6h150.8c8,0,13.5,6.5,12.2,14.6
	l-31.9,191.6C521.1,445,513.5,451.5,505.5,451.5z"/>
<path class="st2" d="M397.2,360.9h-20.6c-1.1,0-2.2,0.5-3.1,1.2c-0.9,0.7-1.4,1.7-1.7,2.9l-7.3,38.3c-0.1,0.5-0.1,1,0,1.5
	c0.1,0.5,0.4,1,0.7,1.3c0.3,0.4,0.7,0.7,1.2,0.9c0.5,0.2,1,0.3,1.5,0.3h20.6c1.1,0,2.2-0.5,3.1-1.2s1.4-1.7,1.7-2.9l7.3-38.3
	c0.1-0.5,0.1-1,0-1.5c-0.1-0.5-0.4-1-0.7-1.3c-0.3-0.4-0.7-0.7-1.2-0.9C398.2,361,397.7,360.9,397.2,360.9z"/>
<path class="st2" d="M446.4,301.6h-20.6c-1.1,0-2.2,0.5-3.1,1.2c-0.9,0.7-1.4,1.7-1.7,2.9L406,403.3c-0.1,0.5-0.1,1,0,1.5
	c0.1,0.5,0.4,1,0.7,1.3c0.3,0.4,0.7,0.7,1.2,0.9c0.5,0.2,1,0.3,1.5,0.3h20.6c1.1,0,2.2-0.5,3.1-1.2c0.9-0.7,1.4-1.7,1.7-2.9
	l15.1-97.6c0.1-0.5,0.1-1,0-1.5c-0.1-0.5-0.4-1-0.7-1.3c-0.3-0.4-0.7-0.7-1.2-0.9C447.4,301.7,446.9,301.6,446.4,301.6z"/>
<path class="st2" d="M481.5,329.5h-20.6c-1.1,0-2.2,0.5-3.1,1.2s-1.4,1.7-1.7,2.9l-11.3,69.7c-0.1,0.5-0.1,1,0,1.5
	c0.1,0.5,0.4,1,0.7,1.3c0.3,0.4,0.7,0.7,1.2,0.9c0.5,0.2,1,0.3,1.5,0.3h20.6c1.1,0,2.2-0.5,3.1-1.2c0.9-0.7,1.4-1.7,1.7-2.9
	l11.3-69.7c0.1-0.5,0.1-1,0-1.5c-0.1-0.5-0.4-1-0.7-1.3c-0.3-0.4-0.7-0.7-1.2-0.9C482.5,329.6,482,329.5,481.5,329.5z"/>
<path class="st2" d="M523.7,318.6h-20.6c-1.1,0-2.2,0.5-3.1,1.2c-0.9,0.7-1.4,1.7-1.7,2.9L485,403.3c-0.1,0.5-0.1,1,0,1.5
	c0.1,0.5,0.4,1,0.7,1.3c0.3,0.4,0.7,0.7,1.2,0.9s1,0.3,1.5,0.3h20.6c1.1,0,2.2-0.5,3.1-1.2c0.9-0.7,1.4-1.7,1.7-2.9l13.4-80.6
	c0.1-0.5,0.1-1,0-1.5c-0.1-0.5-0.4-1-0.7-1.3s-0.7-0.7-1.2-0.9C524.7,318.7,524.2,318.6,523.7,318.6z"/>
<path class="st8" d="M389.4,254.3h55.7"/>
<path class="st8" d="M386.3,273.2h27.8"/>
<path class="st9" d="M370.6,421h10.8"/>
<path class="st9" d="M412,421h10.8"/>
<path class="st9" d="M450.9,421h10.8"/>
<path class="st11" d="M174.1,144.1c0,0,17.5-3.7,23,4.8c5.5,8.5,11.1,24.5,23.6,22.4s22.2-43.8,34.7-43.4c12.6,0.4,7,27.7,20.7,28.1
	c13.7,0.4,10.3-15.1,21.4-15.1s7.4,33.2,21.8,33.6c14.4,0.4,12.9-42.8,34.7-42.1"/>
<path class="st5" d="M123.1,138.3c8.9-21.8,0.3-46-19.1-53.9c-19.5-7.9-42.4,3.4-51.3,25.2c-8.9,21.8-0.3,46,19.1,53.9
	C91.3,171.5,114.2,160.2,123.1,138.3z"/>
<path class="st6" d="M106,159.5c-10.3,6.8-22.8,8.7-34.2,4.1c-19.5-7.9-28-32.1-19.1-53.9c8.9-21.8,31.9-33.1,51.3-25.2"/>
<path class="st8" d="M188.3,188.9h76.9"/>
<path class="st12" d="M183.6,103.1h31.3"/>
<path class="st11" d="M229.5,574.3h23.5"/>
<path class="st13" d="M234.3,584.5h11.8"/>
<path class="st14" d="M213.9,554l18-12.6l12.7,8.5l16.9-12.3"/>
<path class="st14" d="M248.5,532.2h18V550"/>
<path class="st15" d="M520.7,317.2h-69.8c-0.9,0-1.7-0.1-2.5-0.5c-0.8-0.4-1.5-0.9-2-1.5c-0.5-0.7-0.9-1.4-1.1-2.3
	c-0.2-0.8-0.2-1.7,0.1-2.5l10.7-55.1c0.4-1.9,1.4-3.6,2.9-4.8c1.5-1.2,3.3-2,5.3-2H534c0.9,0,1.7,0.1,2.5,0.5c0.8,0.4,1.5,0.9,2,1.5
	c0.5,0.7,0.9,1.4,1.1,2.3s0.2,1.7-0.1,2.5l-10.7,55.1c-0.4,1.9-1.4,3.6-2.9,4.8C524.4,316.5,522.6,317.2,520.7,317.2z"/>
<path class="st2" d="M472.8,263.3l46.4,0c0.3,0,0.7,0,1,0.2c0.3,0.1,0.6,0.3,0.8,0.6c0.2,0.3,0.4,0.6,0.4,0.9c0.1,0.3,0.1,0.7,0,1
	l-0.6,3.5c-0.1,0.5-0.3,1-0.6,1.4c-0.3,0.4-0.7,0.7-1.2,1l-25.4,12.2c-0.4,0.2-0.8,0.3-1.3,0.3c-0.4,0-0.9-0.1-1.3-0.3L470,271.4
	c-0.4-0.2-0.7-0.6-0.9-1s-0.2-0.9-0.1-1.3l0.6-3.1c0.2-0.7,0.6-1.4,1.1-1.9C471.3,263.6,472.1,263.4,472.8,263.3z"/>
<path class="st2" d="M470.5,276l20,12.6c0.3,0.2,0.6,0.2,0.9,0.2s0.6-0.1,0.9-0.2l24.6-12.6c1.3-0.7,2.7,0.2,2.4,1.5l-3.7,20
	c-0.3,1.3-1,2.5-2,3.4c-1,0.9-2.3,1.4-3.7,1.4l-42.2,0c-0.6,0-1.2-0.1-1.7-0.3c-0.5-0.2-1-0.6-1.4-1.1c-0.4-0.5-0.7-1-0.8-1.6
	c-0.1-0.6-0.1-1.2,0-1.8l3.7-20c0.1-0.3,0.2-0.6,0.4-0.9c0.2-0.3,0.4-0.5,0.7-0.6c0.3-0.1,0.6-0.2,0.9-0.2
	C469.9,275.8,470.2,275.9,470.5,276z"/>
<path class="st4" d="M536.4,262.9c8,0,14.4-6.5,14.4-14.4c0-8-6.5-14.4-14.4-14.4c-8,0-14.4,6.5-14.4,14.4
	C522,256.4,528.5,262.9,536.4,262.9z"/>
</svg>
