<svg width="80" height="80" viewBox="0 0 80 80" fill="none" xmlns="http://www.w3.org/2000/svg">
<path d="M45.0888 76.7893H18.9565C18.8175 76.7383 18.6837 76.6732 18.5412 76.6362C16.1778 76.0046 14.4586 74.1326 14.2087 71.7098C14.0661 70.3375 14.1312 68.9458 14.1013 67.5611C14.1013 67.306 14.0802 67.0526 14.0697 66.8292C10.5906 66.2292 8.14105 64.4223 6.79485 61.2219C6.50977 60.5445 6.36371 59.8143 6.1543 59.1106C6.1543 45.0351 6.1543 30.9597 6.1543 16.8842C6.21087 16.7481 6.25791 16.6082 6.29508 16.4655C7.08696 12.315 10.7807 9.23071 14.9935 9.23071C31.6443 9.23071 48.2944 9.23071 64.944 9.23071C69.6813 9.23247 73.7287 13.2369 73.7287 17.9592C73.7393 31.352 73.7393 44.7448 73.7287 58.1376C73.7285 58.7083 73.6648 59.2771 73.5386 59.8337C72.5778 64.0264 68.9844 66.8714 64.6748 66.8714C60.0337 66.8714 55.3927 66.8714 50.7516 66.8714H49.951C49.951 68.2438 49.9633 69.5105 49.951 70.7914C49.9298 72.7514 49.2224 74.4264 47.6175 75.5788C46.8608 76.119 45.9246 76.397 45.0888 76.7893ZM14.1031 64.7425V64.0211C14.1031 62.2183 14.1031 60.4149 14.1031 58.6109C14.1031 57.0503 14.1031 55.4879 14.1031 53.9273C14.1031 53.0915 14.455 52.6552 15.1026 52.6429C15.7784 52.6306 16.1338 53.0722 16.1497 53.9484C16.1497 54.1243 16.1497 54.3003 16.1497 54.4762C16.1497 59.8865 16.1954 65.2967 16.1286 70.7052C16.1004 73.0118 17.8214 74.8311 20.2763 74.8205C28.106 74.79 35.9363 74.79 43.7672 74.8205C46.252 74.8293 47.9748 72.9889 47.9096 70.6999C47.8322 67.9746 47.892 65.2457 47.8903 62.5203C47.8903 62.3127 47.8674 62.1069 47.8498 61.8394C47.5753 61.9432 47.3729 62.0154 47.1741 62.0981C45.1662 62.9232 43.1671 63.7678 41.1469 64.5613C40.6429 64.7636 40.1062 64.8727 39.5632 64.8832C33.6029 64.9061 27.6426 64.8973 21.6806 64.8973C20.5895 64.8973 20.0968 64.5665 20.0968 63.854C20.0968 63.1414 20.5631 62.8687 21.6524 62.8687H38.4791C38.6547 62.8934 38.8333 62.8881 39.0071 62.8529C39.1584 62.7948 39.359 62.6505 39.3872 62.5186C39.5632 61.3556 39.7145 60.1856 39.8817 58.9381H39.0352C33.2503 58.9381 27.4655 58.9381 21.6806 58.9381C21.3761 58.9381 21.0048 58.9786 20.7831 58.8273C20.4728 58.6188 20.2416 58.3121 20.1267 57.9564C20.0158 57.52 20.2869 57.1382 20.7426 56.9992C21.0166 56.9251 21.3 56.8913 21.5838 56.899C27.5224 56.899 33.4609 56.899 39.3995 56.899H40.2266C40.1263 55.1606 41.5763 54.3196 42.3119 52.9578H21.7492C21.5081 52.9578 21.2653 52.9578 21.0242 52.9402C20.4575 52.8892 20.1443 52.5637 20.1074 52.0025C20.0911 51.747 20.175 51.4952 20.3412 51.3005C20.5074 51.1057 20.7429 50.9833 20.9978 50.9591C21.2166 50.9395 21.4365 50.9348 21.6559 50.945C28.8709 50.945 36.0859 50.9486 43.3009 50.9556C43.5138 50.9719 43.7272 50.9305 43.9186 50.8357C44.11 50.741 44.2723 50.5964 44.3884 50.4172C45.3967 49.0589 46.4702 47.7482 47.4767 46.3881C47.7171 46.0639 47.8561 45.6757 47.8762 45.2726C47.9061 41.9297 47.8269 38.5868 47.9167 35.2439C47.9818 32.8212 46.0901 31.0705 43.7514 31.0916C35.9439 31.1632 28.1359 31.1632 20.3273 31.0916C18.0256 31.0688 16.0758 32.7561 16.1286 35.2808C16.2201 39.6794 16.155 44.078 16.1497 48.4766C16.1497 48.7809 16.1831 49.1557 16.0265 49.3686C15.8188 49.6483 15.437 49.9615 15.1308 49.9633C14.8246 49.965 14.4533 49.6466 14.2315 49.3721C14.0802 49.1839 14.1101 48.8284 14.1101 48.5469C14.1043 44.1272 14.1043 39.707 14.1101 35.2861C14.1026 34.7158 14.1616 34.1466 14.2861 33.59C14.9671 30.7925 17.246 29.0876 20.3115 29.0841C28.1201 29.0747 35.9287 29.0747 43.7373 29.0841C44.2866 29.0801 44.8345 29.1391 45.3703 29.2601C48.1384 29.9163 49.9052 32.1842 49.9298 35.1102C49.9492 37.5294 49.9298 39.9486 49.9298 42.3678C49.9298 42.5948 49.9492 42.8218 49.965 43.1807C50.2378 42.8429 50.419 42.6282 50.5897 42.4065C52.7349 39.6477 54.8642 36.8766 57.0322 34.1372C58.1637 32.705 59.7 32.0259 61.5055 32.2863C65.5881 32.8915 67.2458 37.2127 64.6994 40.4852C60.4526 45.9547 56.2045 51.4224 51.9553 56.8884C51.2831 57.7558 50.3715 58.544 50.0284 59.5275C49.6852 60.5111 49.9351 61.7004 49.9281 62.7983C49.9281 63.4687 49.9281 64.139 49.9281 64.8305C50.1832 64.8445 50.3346 64.8604 50.4859 64.8604C55.1927 64.8604 59.8994 64.8604 64.6062 64.8604C65.1115 64.8684 65.6163 64.8242 66.1125 64.7284C69.5035 64.0035 71.7261 61.2553 71.7296 57.7329C71.7425 47.3746 71.7425 37.0168 71.7296 26.6596C71.7296 26.4925 71.6997 26.3271 71.6839 26.174C71.6262 26.158 71.5673 26.1462 71.5079 26.1388H62.4012C61.5776 26.1388 61.1183 25.7869 61.1113 25.1553C61.1042 24.5237 61.5547 24.1577 62.3818 24.156C65.2408 24.156 68.1004 24.156 70.9606 24.156H71.7331C71.7331 23.8533 71.7331 23.6176 71.7331 23.3818C71.7067 21.3831 71.6962 19.3826 71.6434 17.3839C71.6151 16.9461 71.5257 16.5143 71.3777 16.1013C70.4221 13.0469 67.7807 11.2083 64.402 11.2083C48.1067 11.2083 31.8097 11.2083 15.5109 11.2083C15.2909 11.2083 15.071 11.2083 14.851 11.2224C11.386 11.4159 8.62851 13.8228 8.266 17.2625C8.03547 19.4776 8.17801 21.7403 8.15513 23.98C8.15513 24.0152 8.19913 24.0504 8.25192 24.1313H57.1079C58.0405 24.1313 58.5297 24.4832 58.5245 25.1272C58.5192 25.7711 58.0317 26.1142 57.0955 26.116H8.13402V26.9957C8.13402 34.8908 8.13402 42.786 8.13402 50.6811C8.13402 53.0775 8.10938 55.4756 8.13402 57.8719C8.18681 61.4049 10.7138 64.3202 14.1031 64.7425ZM42.7571 55.7694L47.4451 59.4167L58.4083 45.3113L53.7168 41.6641L42.7571 55.7694ZM62.6317 39.7586C63.7632 38.717 64.1697 37.5048 63.7685 36.3136C63.3954 35.2069 62.63 34.4979 61.465 34.3061C59.8812 34.0457 58.8412 34.8515 58.0335 36.1852L62.6317 39.7586ZM54.9522 40.063L59.6384 43.7067L61.4509 41.3702L56.7665 37.7335L54.9522 40.063ZM41.4637 62.2723L45.6308 60.5498L42.0937 57.8051L41.4637 62.2723Z" fill="#FEAF01"/>
<path d="M55.3835 14.1782C58.595 14.1782 61.8048 14.1782 65.0163 14.1782C66.8412 14.1782 68.1469 15.1002 68.6256 16.6819C68.7713 17.1673 68.8085 17.6788 68.7347 18.1803C68.6608 18.6817 68.4776 19.1607 68.1981 19.5835C67.9186 20.0064 67.5496 20.3626 67.1171 20.627C66.6847 20.8915 66.1994 21.0577 65.6956 21.1139C65.3899 21.1467 65.0827 21.1637 64.7753 21.1649C58.4859 21.1649 52.196 21.1649 45.9055 21.1649C44.8496 21.1649 43.8448 20.989 43.0476 20.2184C41.9918 19.1873 41.6398 17.9416 42.115 16.5482C42.5848 15.1934 43.5703 14.3137 45.0291 14.2328C46.7607 14.136 48.5011 14.1817 50.238 14.1747C51.9748 14.1677 53.6677 14.1782 55.3835 14.1782ZM55.3536 19.1381C58.6079 19.1381 61.8617 19.1381 65.1149 19.1381C66.1707 19.1381 66.8254 18.4677 66.7391 17.5141C66.6687 16.7259 66.0476 16.2121 65.1272 16.2121C60.6856 16.2121 56.2446 16.2121 51.8041 16.2121C49.7153 16.2121 47.6265 16.2121 45.5377 16.2121C44.8496 16.2121 44.334 16.469 44.0577 17.0918C43.6072 18.1106 44.341 19.1257 45.5253 19.1257C48.802 19.1451 52.0839 19.1381 55.3536 19.1381Z" fill="#FEAF01"/>
<path d="M32.0758 35.0626C35.3507 35.0626 38.6274 35.0415 41.9023 35.0626C44.1583 35.082 45.5978 37.2408 44.6897 39.2307C44.1724 40.3708 43.2573 41.0095 41.9956 41.013C35.3566 41.0271 28.7171 41.0271 22.0769 41.013C21.32 40.9762 20.6055 40.6525 20.079 40.1076C19.5524 39.5627 19.2533 38.8377 19.2425 38.0801C19.2317 37.3225 19.5101 36.5893 20.021 36.0297C20.5319 35.47 21.2369 35.1261 21.9925 35.0679C22.0576 35.0679 22.1245 35.0679 22.1896 35.0679L32.0758 35.0626ZM32.023 37.0719C28.7921 37.0719 25.5612 37.0719 22.3303 37.0719C21.8323 37.0719 21.41 37.1651 21.1935 37.6666C20.8698 38.4143 21.4082 39.0495 22.3902 39.0512C28.8074 39.0512 35.2246 39.0512 41.6418 39.0512C42.4548 39.0512 42.9405 38.6659 42.9423 38.0536C42.9441 37.4414 42.4777 37.0754 41.6471 37.0754L32.023 37.0719Z" fill="#FEAF01"/>
<path d="M32.4834 46.9741C28.8114 46.9741 25.1388 46.9741 21.4656 46.9741C21.2249 46.9961 20.9822 46.9777 20.7476 46.9195C20.534 46.8536 20.3517 46.7123 20.2345 46.522C20.1174 46.3317 20.0733 46.1053 20.1106 45.885C20.1228 45.6627 20.2138 45.4521 20.3673 45.2909C20.5208 45.1296 20.7268 45.0284 20.9482 45.0053C21.1451 44.983 21.3435 44.9783 21.5412 44.9912H43.51C43.6419 44.9912 43.7739 44.9912 43.9059 44.9912C44.5412 45.0246 44.9618 45.4487 44.9477 46.024C44.9283 46.5712 44.513 46.9635 43.8918 46.9706C42.528 46.9829 41.1642 46.9706 39.8022 46.9706L32.4834 46.9741Z" fill="#FEAF01"/>
<path d="M31.9982 17.6725C31.994 17.2165 32.0801 16.7641 32.2516 16.3414C32.4231 15.9187 32.6765 15.5342 32.9972 15.2099C33.318 14.8856 33.6998 14.6279 34.1206 14.4518C34.5414 14.2757 34.9929 14.1845 35.4491 14.1836C35.9062 14.1836 36.3588 14.2736 36.7811 14.4485C37.2034 14.6234 37.5871 14.8797 37.9103 15.2029C38.2336 15.5261 38.49 15.9097 38.6649 16.3319C38.8398 16.7542 38.9298 17.2067 38.9298 17.6637C38.9298 18.1208 38.8398 18.5733 38.6649 18.9955C38.49 19.4178 38.2336 19.8014 37.9103 20.1246C37.5871 20.4477 37.2034 20.7041 36.7811 20.879C36.3588 21.0539 35.9062 21.1439 35.4491 21.1439C34.9939 21.1446 34.5431 21.0551 34.1227 20.8807C33.7024 20.7062 33.3207 20.4502 32.9999 20.1275C32.679 19.8047 32.4253 19.4216 32.2534 19.0002C32.0814 18.5788 31.9947 18.1276 31.9982 17.6725ZM35.4508 19.1258C35.8321 19.1246 36.1977 18.9746 36.4699 18.7077C36.7422 18.4409 36.8994 18.0783 36.9081 17.6972C36.9168 17.3161 36.7764 16.9467 36.5166 16.6677C36.2569 16.3887 35.8985 16.2221 35.5177 16.2034C35.3227 16.1939 35.1277 16.2235 34.9443 16.2904C34.7609 16.3574 34.5928 16.4605 34.4499 16.5934C34.307 16.7264 34.1921 16.8867 34.1121 17.0648C34.0321 17.2429 33.9886 17.4352 33.9842 17.6303C33.9797 17.8255 34.0144 18.0196 34.0861 18.2011C34.1579 18.3827 34.2653 18.548 34.402 18.6874C34.5387 18.8268 34.7019 18.9374 34.882 19.0127C35.0622 19.088 35.2556 19.1265 35.4508 19.1258Z" fill="#FEAF01"/>
<path d="M24.5439 21.1457C23.6207 21.1515 22.733 20.7904 22.0761 20.1419C21.4192 19.4934 21.0469 18.6105 21.0411 17.6875C21.0353 16.7645 21.3964 15.877 22.045 15.2202C22.6937 14.5635 23.5767 14.1912 24.4999 14.1854C24.957 14.1825 25.4102 14.2696 25.8336 14.4419C26.257 14.6141 26.6423 14.868 26.9676 15.1891C27.2929 15.5103 27.5517 15.8923 27.7293 16.3134C27.9069 16.7345 27.9998 17.1865 28.0027 17.6435C28.0055 18.1006 27.9184 18.5537 27.7461 18.977C27.5739 19.4003 27.3199 19.7856 26.9987 20.1108C26.6775 20.436 26.2954 20.6948 25.8742 20.8724C25.453 21.0499 25.001 21.1428 24.5439 21.1457ZM25.9886 17.6972C25.9971 17.5063 25.9671 17.3156 25.9004 17.1364C25.8337 16.9573 25.7317 16.7935 25.6003 16.6546C25.469 16.5157 25.311 16.4047 25.1359 16.3281C24.9607 16.2515 24.772 16.2109 24.5808 16.2087C24.3814 16.1914 24.1805 16.2151 23.9906 16.2786C23.8007 16.342 23.6259 16.4437 23.4769 16.5775C23.328 16.7112 23.2081 16.8741 23.1247 17.0561C23.0413 17.2381 22.9961 17.4352 22.992 17.6353C22.9879 17.8354 23.0249 18.0343 23.1008 18.2195C23.1767 18.4047 23.2898 18.5724 23.4332 18.7121C23.5765 18.8519 23.747 18.9607 23.9341 19.0319C24.1213 19.103 24.321 19.135 24.521 19.1259C24.7115 19.1305 24.9011 19.0971 25.0785 19.0276C25.2559 18.958 25.4176 18.8537 25.5542 18.7208C25.6908 18.5878 25.7994 18.429 25.8737 18.2535C25.948 18.078 25.9865 17.8895 25.9869 17.699L25.9886 17.6972Z" fill="#FEAF01"/>
<path d="M14.58 21.1456C13.8907 21.1424 13.2178 20.9347 12.6467 20.5487C12.0756 20.1627 11.632 19.6159 11.3721 18.9776C11.1122 18.3393 11.0477 17.6381 11.1869 16.9631C11.326 16.2881 11.6624 15.6696 12.1535 15.186C12.6446 14.7024 13.2683 14.3754 13.9455 14.2466C14.6227 14.1178 15.3229 14.1929 15.9573 14.4625C16.5917 14.732 17.1318 15.1838 17.5091 15.7606C17.8864 16.3374 18.0839 17.0132 18.0766 17.7024C18.0734 18.1581 17.9804 18.6087 17.8028 19.0284C17.6253 19.4481 17.3668 19.8288 17.0421 20.1486C16.7173 20.4683 16.3327 20.721 15.9103 20.8921C15.4878 21.0631 15.0358 21.1493 14.58 21.1456ZM14.5641 19.1257C14.9498 19.1356 15.3237 18.9927 15.6044 18.7281C15.8851 18.4636 16.0499 18.0989 16.0629 17.7134C16.0759 17.3279 15.9361 16.9529 15.6738 16.6701C15.4115 16.3873 15.0481 16.2195 14.6627 16.2033C14.4698 16.1952 14.2772 16.2254 14.0961 16.2921C13.9149 16.3588 13.7488 16.4607 13.6072 16.5919C13.4656 16.7232 13.3514 16.8811 13.2712 17.0567C13.191 17.2323 13.1464 17.422 13.1399 17.6149C13.1334 17.8078 13.1651 18.0001 13.2333 18.1806C13.3015 18.3612 13.4048 18.5265 13.5372 18.6669C13.6696 18.8074 13.8285 18.9203 14.0048 18.999C14.1811 19.0778 14.3712 19.1208 14.5641 19.1257Z" fill="#FEAF01"/>
<path d="M27.0605 70.853C25.1248 70.853 23.189 70.853 21.2533 70.853C20.4614 70.853 19.9933 70.3586 20.1148 69.6777C20.2291 69.032 20.6849 68.8525 21.2727 68.8525C23.3844 68.8525 25.4961 68.8525 27.6078 68.8525C29.3218 68.8525 31.034 68.8525 32.748 68.8525C33.5927 68.8525 34.0097 69.2044 34.0009 69.8572C33.9922 70.5099 33.5575 70.8495 32.7269 70.8512C30.8381 70.8524 28.9493 70.853 27.0605 70.853Z" fill="#FEAF01"/>
</svg>
