<svg width="80" height="80" viewBox="0 0 80 80" fill="none" xmlns="http://www.w3.org/2000/svg">
<path d="M74.9971 68.6228C74.5906 69.5341 74.3063 70.511 73.7522 71.3112C73.2404 72.087 72.5428 72.7227 71.7228 73.1604C70.9029 73.5981 69.9865 73.8239 69.0571 73.8173C65.8 73.8574 62.5411 73.8428 59.284 73.8428C47.7102 73.8428 36.1364 73.8428 24.5626 73.8428C24.2897 73.8509 24.0165 73.8442 23.7443 73.8228C23.6169 73.8184 23.4918 73.7884 23.3763 73.7346C23.2609 73.6807 23.1575 73.6041 23.0724 73.5093C22.9873 73.4144 22.9222 73.3034 22.881 73.1828C22.8399 73.0623 22.8235 72.9346 22.8329 72.8075C22.8329 72.2608 23.1701 71.8725 23.7443 71.7905C23.9716 71.7713 24.2 71.7683 24.4278 71.7814H68.3171C71.2442 71.7814 72.9429 70.0863 72.9466 67.1701C72.9466 66.5777 72.9229 65.9836 72.9466 65.393C72.9739 64.8462 72.7352 64.6403 72.2175 64.6858C72.0827 64.6968 71.9441 64.6858 71.8074 64.6858H8.18251C7.05794 64.6858 7.04336 64.6858 7.06159 65.8086C7.07435 66.6707 7.03972 67.5474 7.18006 68.3931C7.50996 70.3834 9.18497 71.7632 11.2154 71.7759C13.789 71.7923 16.3644 71.7759 18.9379 71.7759C19.8493 71.7759 20.4307 72.556 19.986 73.2523C19.8695 73.4074 19.7217 73.5363 19.5521 73.6305C19.3825 73.7247 19.195 73.7821 19.0017 73.7991C16.2003 73.8373 13.3971 73.8683 10.5957 73.7881C7.73414 73.7134 5.09131 70.932 5.01658 68.0432C4.99106 67.0863 5.00747 66.1294 5.01658 65.1725C5.01658 63.5959 5.98258 62.6335 7.56828 62.6208C7.75055 62.6208 7.93281 62.6208 8.19527 62.6208C8.19527 62.2836 8.19527 61.9974 8.19527 61.7095C8.19527 51.1381 8.19527 40.5668 8.19527 29.9954C8.19527 26.8149 9.54768 24.4382 12.4347 23.0092C13.4973 22.4843 14.6493 22.3421 15.8194 22.3403C18.0746 22.3403 20.3298 22.3403 22.5851 22.3403H23.4107C23.4107 21.6113 23.4107 20.9587 23.4107 20.3026C23.4326 18.8846 24.1288 18.1154 25.5213 17.9222C25.7145 17.8949 25.9041 17.698 26.0481 17.5376C26.1465 17.4283 26.1392 17.2314 26.2194 17.0984C26.6459 16.3967 26.7462 15.797 26.1301 15.0625C25.5961 14.4227 25.8312 13.3237 26.4582 12.6803C27.6502 11.4567 28.8586 10.2489 30.0834 9.05687C30.9018 8.26402 32.0537 8.24215 32.9268 8.99672C33.233 9.26101 33.4735 9.35214 33.8144 9.11519C33.9466 9.02626 34.0917 8.95803 34.2445 8.91288C34.908 8.71057 35.3855 8.46451 35.4803 7.60058C35.5823 6.61452 36.4353 6.01487 37.4196 6.01487C39.128 5.99179 40.8364 5.99179 42.5449 6.01487C43.7132 6.03128 44.5498 6.83689 44.6281 8.01978C44.6537 8.36973 44.7375 8.56658 45.0911 8.64677C45.2905 8.69433 45.4821 8.77045 45.6598 8.87278C46.2594 9.20633 46.7533 9.33209 47.3913 8.78347C48.093 8.182 49.203 8.35515 49.8938 9.02406C51.1386 10.227 52.3707 11.4445 53.5646 12.6985C54.4267 13.6098 54.3082 14.6852 53.2893 15.8954C53.5172 16.4623 53.7268 17.0583 54.0002 17.6233C54.0609 17.7055 54.1378 17.7743 54.2262 17.8254C54.3147 17.8765 54.4127 17.9088 54.5142 17.9204C55.8283 18.1027 56.5555 18.8718 56.592 20.1932C56.612 20.8731 56.592 21.5529 56.592 22.3348C56.9237 22.3348 57.1862 22.3348 57.4505 22.3348C60.1152 22.3622 62.7835 22.2984 65.4428 22.4406C68.5777 22.6082 71.4575 25.4607 71.6871 28.5956C71.8402 30.7263 71.7856 32.8734 71.802 35.0132C71.7889 35.2016 71.8199 35.3906 71.8927 35.5649C71.9655 35.7393 72.078 35.8942 72.2212 36.0174C72.5785 36.3218 72.8659 36.6996 73.0638 37.1252C73.2616 37.5508 73.3653 38.0141 73.3676 38.4835C73.3786 42.8117 73.3786 47.1398 73.3676 51.468C73.3676 52.5051 72.8974 53.3417 72.161 54.0525C71.9802 54.2092 71.8607 54.4249 71.8238 54.6613C71.802 57.2786 71.8093 59.8959 71.8093 62.6098C73.3166 62.4276 74.3992 62.9981 74.9898 64.3869L74.9971 68.6228ZM64.1596 34.9949C64.1596 34.0581 64.1596 33.2179 64.1596 32.3794C64.1596 30.7391 63.6019 30.1813 61.9396 30.1813H18.0685C16.4026 30.1813 15.8449 30.7281 15.8449 32.3685C15.8449 42.1853 15.8449 52.0027 15.8449 61.8206V62.5697H64.1177V54.9839H63.3467C58.4256 54.9839 53.5044 54.9839 48.5833 54.9839C46.1938 54.9839 44.6573 53.4292 44.6537 51.0506C44.6537 47.087 44.6537 43.1233 44.6537 39.1597C44.6537 36.4494 46.1901 34.9494 48.9114 35.0004C49.6714 35.015 50.0997 35.3649 50.1161 36.001C50.1344 36.6718 49.7115 37.0399 48.9059 37.0564C47.2783 37.0873 46.7187 37.636 46.7187 39.2435C46.7187 43.093 46.7187 46.9424 46.7187 50.7918C46.7146 51.042 46.7322 51.292 46.7716 51.5391C46.921 52.3793 47.5225 52.9134 48.381 52.9134C55.465 52.9207 62.549 52.9207 69.633 52.9134C70.6282 52.9134 71.2953 52.2335 71.2989 51.2292C71.308 47.0846 71.319 42.938 71.2789 38.7933C71.2789 38.365 71.0565 37.7982 70.7321 37.5503C70.2912 37.244 69.767 37.0805 69.2302 37.0819C64.4695 37.0491 59.7087 37.0636 54.948 37.06C54.1824 37.06 53.7541 36.6955 53.7377 36.0667C53.7213 35.4378 54.1824 35.015 54.9607 35.0077C55.6442 35.0077 56.3277 35.0077 57.0112 35.0077L64.1596 34.9949ZM69.6932 34.964C69.6932 33.2033 69.633 31.5155 69.7059 29.835C69.8408 26.722 67.2618 24.4108 64.3145 24.4218C48.093 24.4765 31.8714 24.4473 15.6499 24.4509C15.2406 24.4415 14.8313 24.4689 14.4269 24.533C12.1613 24.9522 10.2804 27.0518 10.2913 29.7968C10.3369 40.503 10.3095 51.2092 10.3114 61.9154C10.3114 62.1341 10.3351 62.351 10.3478 62.5679H13.7653C13.7653 62.2544 13.7653 61.9847 13.7653 61.7149C13.7653 51.8969 13.7653 42.079 13.7653 32.261C13.7533 31.9202 13.7734 31.5791 13.8254 31.2421C14.2118 29.2427 15.721 28.0689 17.9027 28.0689C26.559 28.0689 35.2154 28.0689 43.8717 28.0689C49.9083 28.0689 55.9449 28.0689 61.9815 28.0689C62.5038 28.06 63.0249 28.1213 63.5308 28.2512C64.3145 28.4752 65.0033 28.9496 65.492 29.6019C65.9808 30.2542 66.2426 31.0486 66.2374 31.8636C66.2502 32.8989 66.2374 33.936 66.2374 34.9621L69.6932 34.964ZM33.2567 22.2966C33.6394 18.726 36.1383 16.1123 39.3334 15.8699C40.9737 15.746 42.4975 16.0996 43.8517 17.0601C45.6488 18.336 46.5674 20.1149 46.7533 22.2984H54.465V20.0492C52.9576 20.1167 52.234 19.2309 51.8732 17.9131C51.8181 17.7396 51.7442 17.5728 51.6526 17.4155C51.0238 16.2399 50.9436 15.1226 51.9643 14.2204L48.4229 10.6353C48.0875 10.8431 47.7485 11.1365 47.3566 11.2805C46.2776 11.676 43.2921 10.4475 42.8 9.40499C42.6178 9.00948 42.5758 8.54471 42.472 8.11821H37.4342C37.518 9.53987 36.7488 10.2616 35.5404 10.6462C35.279 10.7222 35.0252 10.8223 34.7822 10.9451C33.6194 11.5721 32.5312 11.6031 31.6144 10.5915L28.0184 14.2004C28.6873 14.8073 28.9917 15.6038 28.6982 16.5498C28.5652 16.9817 28.2991 17.3718 28.1751 17.8056C27.7869 19.1507 27.0815 20.1057 25.5414 20.0638V22.2966H33.2567ZM44.6263 22.2966C44.4258 19.7449 42.3152 17.8293 39.8783 17.9222C37.4724 18.0079 35.391 20.0292 35.4092 22.2966H44.6263ZM69.6348 62.577V55.044H66.2812V62.5825L69.6348 62.577Z" fill="#FEAF01"/>
<path d="M28.8268 50.5987C28.8268 51.9602 28.8688 53.1504 28.8268 54.3223C28.7211 56.8376 26.8438 58.5764 24.3249 58.5509C23.0071 58.5363 22.258 57.7945 22.2525 56.4694C22.2525 54.6249 22.2289 52.7786 22.2635 50.9359C22.2726 50.4237 22.1231 50.2068 21.6383 50.0118C19.3545 49.1205 17.8308 46.7037 18.0586 44.4217C18.332 41.6659 20.1784 39.548 22.7811 39.1525C23.7995 39.0284 24.8278 39.007 25.8505 39.0887C27.6972 39.2033 29.5347 38.7498 31.1161 37.7891C32.9898 36.6737 34.9436 35.704 36.8756 34.6779C39.0209 33.5351 41.0568 34.7362 41.0677 37.1639C41.0799 42.22 41.0799 47.276 41.0677 52.332C41.0677 54.7707 39.03 55.9664 36.8756 54.8163C34.6484 53.6297 32.4302 52.4268 30.2048 51.2384C29.7983 51.0343 29.3846 50.852 28.8268 50.5987ZM28.8268 48.355C29.7764 48.7851 30.6495 49.1296 31.4606 49.5579C33.553 50.6515 35.6235 51.7852 37.7031 52.9043C38.64 53.4074 38.9407 53.2415 38.9425 52.2044C38.9425 47.2225 38.9425 42.2406 38.9425 37.2587C38.9425 36.3 38.6217 36.1068 37.7833 36.5497C37.0214 36.9525 36.2723 37.3845 35.5014 37.7709C33.3743 38.8335 31.2364 39.8742 29.1221 40.9423C29.0452 40.9932 28.9807 41.0608 28.9334 41.1399C28.8861 41.2191 28.8571 41.3079 28.8487 41.3998C28.8195 43.7437 28.825 46.084 28.825 48.355H28.8268ZM26.7199 41.1446C25.5953 41.1446 24.5491 41.1118 23.5029 41.1446C21.8425 41.2102 20.3388 42.6264 20.1747 44.2249C19.9797 46.135 21.0678 47.892 22.8321 48.2019C24.0898 48.4224 25.3984 48.3568 26.7199 48.4188V41.1446ZM24.3723 50.4656V56.4166C25.5424 56.4895 26.6141 55.7385 26.698 54.6304C26.8019 53.2579 26.7235 51.8727 26.7235 50.4656H24.3723Z" fill="#FEAF01"/>
<path d="M60.5388 44.9061C60.5388 43.7214 60.5388 42.5367 60.5388 41.3519C60.5388 40.3878 60.9034 40.0269 61.8621 40.0269C62.8208 40.0269 63.7923 39.9613 64.7255 40.1198C66.4734 40.4151 67.6945 41.886 67.9789 43.9602C68.1611 45.2834 68.0536 46.5993 67.3665 47.8005C66.6374 49.0763 65.5821 49.8473 64.0857 49.933C63.3566 49.9749 62.6276 49.9913 61.8985 49.9895C60.9653 49.9895 60.5589 49.6031 60.5407 48.6644C60.5206 47.4122 60.5388 46.1583 60.5388 44.9061ZM62.7005 47.8223C63.8561 47.9189 64.9369 47.9681 65.5274 46.829C65.8605 46.2283 66.0265 45.5494 66.0082 44.8628C65.99 44.1762 65.7881 43.507 65.4235 42.9249C64.8002 41.8732 63.7285 42.0846 62.6987 42.1138L62.7005 47.8223Z" fill="#FEAF01"/>
<path d="M54.427 39.916C54.8425 39.916 55.2308 40.204 55.424 40.7125C56.4288 43.342 57.4222 45.9757 58.404 48.6137C58.6409 49.2553 58.3712 49.8312 57.8226 50.0244C57.2739 50.2176 56.6196 49.9934 56.4756 49.3373C56.235 48.2346 55.6026 47.9338 54.5892 48.1125C54.431 48.1378 54.2698 48.1378 54.1117 48.1125C53.0381 47.9502 52.2471 48.1434 51.9956 49.4138C51.8771 50.008 51.2136 50.2213 50.6723 50.0189C50.5444 49.971 50.4276 49.8977 50.3288 49.8034C50.23 49.7091 50.1513 49.5958 50.0975 49.4703C50.0437 49.3448 50.0158 49.2097 50.0156 49.0731C50.0154 48.9365 50.0429 48.8013 50.0964 48.6757C51.094 46.0194 52.1013 43.3675 53.1183 40.7198C53.3188 40.1967 53.6997 39.916 54.427 39.916ZM53.3534 45.9818H55.1961L54.2648 43.5613L53.3534 45.9818Z" fill="#FEAF01"/>
</svg>
