<?xml version="1.0" encoding="utf-8"?>
<!-- Generator: Adobe Illustrator 24.1.2, SVG Export Plug-In . SVG Version: 6.00 Build 0)  -->
<svg version="1.1" id="Layer_1" xmlns:serif="http://www.serif.com/"
	 xmlns="http://www.w3.org/2000/svg" xmlns:xlink="http://www.w3.org/1999/xlink" x="0px" y="0px" viewBox="0 0 1000 1080"
	 style="enable-background:new 0 0 1000 1080;" xml:space="preserve">
<style type="text/css">
	.st0{fill-rule:evenodd;clip-rule:evenodd;fill:#2E2F62;}
</style>
<path class="st0" d="M177.5,818.3l-43.3,43.3c-12.2,12.2-12.2,32,0,44.2c12.2,12.2,32,12.2,44.2,0l41-41
	C204.2,850.5,190.3,834.9,177.5,818.3L177.5,818.3z M286.5,754.3c0.8,0.8,1.4,1.6,2.1,2.4C287.9,756,287.2,755.2,286.5,754.3z"/>
<path class="st0" d="M822.4,818.2c-12.7,16.6-26.7,32.2-41.8,46.6l41,41c12.2,12.2,32,12.2,44.2,0c12.2-12.2,12.2-32,0-44.2
	L822.4,818.2z"/>
<path class="st0" d="M162.7,374.6L319,218.3c12.2-12.2,12.2-32,0-44.2c-12.2-12.2-32-12.2-44.2,0L118.5,330.4
	c-12.2,12.2-12.2,32,0,44.2S150.5,386.8,162.7,374.6L162.7,374.6z"/>
<path class="st0" d="M680.9,218.3l156.3,156.3c12.2,12.2,32,12.2,44.2,0c12.2-12.2,12.2-32,0-44.2L725.1,174.2
	c-12.2-12.2-32-12.2-44.2,0C668.8,186.3,668.8,206.2,680.9,218.3L680.9,218.3z"/>
<path class="st0" d="M499.9,227.5c-189.7,0-343.8,154-343.8,343.8S310.2,915,499.9,915s343.8-154,343.8-343.8
	S689.7,227.5,499.9,227.5L499.9,227.5z M468.7,540H312.4c-17.3,0-31.3,14-31.3,31.3s14,31.3,31.3,31.3h187.5
	c17.3,0,31.3-14,31.3-31.3l0-187.5c0-17.3-14-31.3-31.2-31.3c-17.3,0-31.3,14-31.3,31.3L468.7,540z"/>
</svg>
