<svg width="80" height="80" viewBox="0 0 80 80" fill="none" xmlns="http://www.w3.org/2000/svg">
<path d="M70.7684 66.5706C70.3501 67.3704 70.0616 68.2868 69.4863 68.9554C67.5296 71.241 64.2171 71.2602 61.9959 69.0658C58.4094 65.5214 54.8303 61.9669 51.2587 58.4023C51.1139 58.2384 50.9806 58.0647 50.8597 57.8825C48.4078 59.5123 45.8918 60.7391 43.1674 61.454C34.2187 63.8068 26.0712 62.1386 18.8741 56.3358C13.826 52.2621 10.8309 46.8991 9.6113 40.5541C9.44303 39.6777 9.34528 38.7948 9.21387 37.9039V33.8253C9.26385 33.6766 9.3019 33.5242 9.32765 33.3695C9.6547 29.519 10.859 25.794 12.8485 22.4789C17.0045 15.5352 23.0686 11.2791 31.0408 9.71054C32.0937 9.50422 33.1658 9.39066 34.2299 9.23071H37.5953C38.4206 9.34907 39.2475 9.45304 40.0712 9.58899C46.6722 10.6734 52.1369 13.7747 56.4174 18.8961C59.9155 23.0257 62.0211 28.1504 62.435 33.5422C63.0071 40.4518 61.1369 46.6848 56.9126 52.2029C56.8164 52.3292 56.7219 52.4572 56.5921 52.6187L61.3757 56.1375C63.7267 57.8681 66.0616 59.6179 68.435 61.3165C69.653 62.1882 70.3725 63.3478 70.7523 64.7585L70.7684 66.5706ZM35.8565 60.3808C49.0825 60.4512 60.2716 49.8469 60.4927 36.1429C60.7107 22.7076 49.903 11.5115 36.2716 11.302C33.0257 11.245 29.8008 11.8315 26.7836 13.0274C23.7665 14.2234 21.0172 16.0051 18.695 18.2692C16.3728 20.5333 14.5238 23.2349 13.2554 26.2174C11.9869 29.1998 11.324 32.4039 11.3052 35.6439C11.1722 49.4502 22.3517 60.3936 35.8565 60.3808ZM52.4783 56.7341C52.6385 56.8668 52.7828 56.9724 52.911 57.0988C55.989 60.159 59.0659 63.2209 62.1418 66.2843C62.6225 66.7642 63.0889 67.2632 63.5921 67.7238C65.2187 69.1937 67.7587 68.6291 68.5039 66.6442C69.0023 65.3071 68.5777 64.0195 67.3036 63.0791C64.8058 61.2386 62.3084 59.403 59.8116 57.5722L55.2507 54.2134L52.4783 56.7341Z" fill="#FEAF01"/>
<path d="M35.8919 56.3757C45.6114 56.2814 54.0585 49.4166 55.9688 39.9671C58.2364 28.7438 51.0249 17.9796 39.7092 15.7515C38.5185 15.518 37.2877 15.4908 36.073 15.3853C35.3037 15.3181 34.8502 14.9502 34.8502 14.3472C34.8502 13.7443 35.355 13.3156 36.1323 13.314C46.3502 13.2948 55.6194 20.7066 57.8903 30.7095C60.315 41.4034 54.9352 52.0956 44.9191 56.5021C32.0425 62.1593 17.0201 54.6084 13.9015 40.9107C11.3134 29.5115 17.6819 18.1731 28.7813 14.472C29.0564 14.3622 29.3527 14.3157 29.6483 14.336C29.8713 14.3645 30.0768 14.4715 30.2278 14.6378C30.3788 14.804 30.4654 15.0186 30.472 15.2429C30.5153 15.7515 30.2557 16.1146 29.7733 16.3114C28.6835 16.756 27.5505 17.1207 26.5169 17.6709C20.4031 20.9209 16.714 25.9896 15.6403 32.7936C13.9175 43.6186 21.2589 53.8854 32.0313 55.9023C33.3021 56.1406 34.6034 56.2206 35.8919 56.3757Z" fill="#FEAF01"/>
<path d="M22.5651 35.8006C22.5651 32.8416 22.6356 29.8826 22.5443 26.9269C22.4641 24.3822 24.5186 22.4852 26.9305 22.514C32.9134 22.5887 38.9016 22.5887 44.8952 22.514C45.4735 22.5026 46.0481 22.6082 46.5844 22.8242C47.1207 23.0403 47.6077 23.3625 48.0159 23.7713C48.4242 24.1802 48.7454 24.6672 48.9601 25.2032C49.1749 25.7392 49.2787 26.313 49.2654 26.8901C49.2157 32.8656 49.251 38.8427 49.2494 44.8198C49.2494 47.4269 47.4866 49.1655 44.868 49.1655C38.8797 49.1655 32.8915 49.1655 26.9032 49.1655C24.3071 49.1655 22.5763 47.4429 22.5763 44.847C22.5587 41.8384 22.5651 38.8203 22.5651 35.8006ZM24.6148 32.7824V33.5422C24.6148 37.2198 24.6148 40.8985 24.6148 44.5783C24.6148 46.3473 25.3632 47.1038 27.1228 47.1038H44.6677C46.4305 47.1038 47.1693 46.3633 47.1709 44.5767C47.1709 40.898 47.1564 37.2193 47.1853 33.5406C47.1853 32.9424 47.0491 32.7712 46.4289 32.7728C39.3984 32.7968 32.3696 32.7872 25.3391 32.7872L24.6148 32.7824ZM47.0955 30.6824C47.1256 30.6227 47.1472 30.5592 47.1596 30.4936C47.1596 29.3548 47.1709 28.2144 47.1709 27.0756C47.1677 25.3466 46.4096 24.5853 44.6869 24.5853C39.0186 24.5853 33.3487 24.6349 27.6805 24.5613C25.3792 24.5309 24.4609 25.361 24.6036 27.645C24.6661 28.6527 24.6148 29.6667 24.6148 30.684L47.0955 30.6824Z" fill="#FEAF01"/>
<path d="M29.7919 42.9549H31.7855C31.7855 42.3759 31.7855 41.8241 31.7855 41.2707C31.7855 40.8517 31.7743 40.431 31.7855 40.012C31.8144 39.3498 32.2294 38.9052 32.8 38.8924C33.3705 38.8796 33.8432 39.3594 33.8528 40.0376C33.8657 40.9972 33.8528 41.9489 33.8528 42.9421H35.8961C35.8961 42.7198 35.8961 42.5071 35.8961 42.3024C35.8961 40.5638 35.8961 38.8236 35.8961 37.085C35.8961 36.2597 36.2647 35.8438 36.949 35.8582C37.59 35.871 37.949 36.2997 37.9506 37.0818C37.9506 39.0187 37.9506 40.9556 37.9506 42.9405H39.9987C39.9987 41.6242 39.9987 40.3111 39.9987 38.9963C39.9987 38.3709 40.3432 37.9663 40.8833 37.9087C41.5548 37.8351 42.0307 38.2526 42.0403 38.9627C42.0564 40.0823 42.0403 41.2019 42.0403 42.3216C42.0403 42.5183 42.0403 42.7134 42.0403 42.9901C42.3609 42.9901 42.6397 42.9789 42.9121 42.9901C43.675 43.0253 44.098 43.4172 44.0852 44.0633C44.0724 44.7095 43.6221 45.0838 42.8625 45.0854C38.9159 45.0854 34.9698 45.0854 31.0243 45.0854C30.3032 45.0854 29.582 45.095 28.8609 45.0854C28.1076 45.0726 27.675 44.6967 27.6685 43.953C27.6482 41.2745 27.6482 38.5954 27.6685 35.9158C27.6685 35.228 28.1701 34.7706 28.7551 34.7962C29.34 34.8218 29.7551 35.2984 29.7583 35.999C29.7679 38.1774 29.7583 40.3574 29.7583 42.5359C29.7711 42.659 29.7823 42.7758 29.7919 42.9549Z" fill="#FEAF01"/>
<path d="M28.1902 26.6326C28.409 26.6202 28.6284 26.6202 28.8472 26.6326C29.096 26.6669 29.3246 26.788 29.4924 26.9745C29.6602 27.1611 29.7564 27.4009 29.7639 27.6514C29.7598 27.9122 29.6565 28.1617 29.475 28.3494C29.2935 28.5371 29.0473 28.6489 28.7863 28.6623C28.4084 28.6847 28.0296 28.6847 27.6517 28.6623C27.5169 28.663 27.3833 28.636 27.2593 28.5831C27.1353 28.5302 27.0235 28.4525 26.9309 28.3547C26.8382 28.257 26.7666 28.1413 26.7205 28.0148C26.6744 27.8883 26.6548 27.7538 26.6629 27.6194C26.6686 27.3585 26.7745 27.1096 26.9589 26.9245C27.1432 26.7393 27.3919 26.6319 27.6533 26.6246C27.8312 26.6118 28.0123 26.6246 28.1918 26.6246L28.1902 26.6326Z" fill="#FEAF01"/>
<path d="M33.3595 26.6295C34.3916 26.6295 34.8595 26.9398 34.8692 27.6372C34.8788 28.3345 34.4012 28.68 33.3323 28.68C33.1336 28.68 32.9333 28.68 32.7361 28.6672C32.6068 28.6617 32.4799 28.6307 32.3626 28.576C32.2453 28.5213 32.14 28.444 32.0527 28.3486C31.9654 28.2532 31.8979 28.1415 31.854 28.02C31.8102 27.8984 31.7908 27.7694 31.797 27.6404C31.7935 27.3801 31.8921 27.1288 32.0718 26.9402C32.2515 26.7516 32.498 26.6407 32.7586 26.6311C32.9605 26.6167 33.1608 26.6295 33.3595 26.6295Z" fill="#FEAF01"/>
</svg>
