<svg width="80" height="80" viewBox="0 0 80 80" fill="none" xmlns="http://www.w3.org/2000/svg">
<path d="M6.1543 39.463C6.34255 38.9071 6.48506 38.33 6.7261 37.7969C7.47208 36.136 8.74587 35.01 10.4806 34.2992C9.69242 33.4195 9.12238 32.4871 8.91125 31.3628C8.50659 29.197 9.09775 27.3356 10.741 25.8876C12.3843 24.4396 14.2985 24.0948 16.4027 24.737C16.7704 24.8496 17.1874 24.7968 17.5921 24.737C15.8608 22.6011 15.3629 20.3491 16.6015 17.9246C17.6853 15.7993 19.5256 14.6944 21.9149 14.8176C24.9058 14.9706 26.6529 16.7283 27.4217 19.5767C27.7173 19.4483 27.9759 19.3392 28.2293 19.2248C28.3039 19.1847 28.3756 19.1394 28.4439 19.0893C25.7204 15.9752 26.7584 12.416 28.7149 10.6971C29.7813 9.74031 31.1672 9.2173 32.5999 9.23097C34.0325 9.24465 35.4082 9.79402 36.4562 10.771C38.4126 12.5743 39.2888 16.0491 36.6321 19.0806L36.8995 19.2371C37.4749 19.5661 37.6807 20.0359 37.4696 20.5338C37.2585 21.0317 36.757 21.2745 36.1536 21.0915C34.0599 20.4617 31.931 20.6358 29.8198 20.8698C29.1675 20.9265 28.544 21.164 28.0194 21.5556C27.4947 21.9472 27.0897 22.4775 26.8499 23.0867C26.6634 23.5283 26.4048 23.9417 26.257 24.3939C26.241 24.5007 26.2518 24.6098 26.2883 24.7115C26.3248 24.8131 26.386 24.9041 26.4664 24.9762C28.9594 26.5016 30.1329 28.7325 30.096 31.6302C30.1073 31.7345 30.1279 31.8375 30.1576 31.9381H34.2411C35.0328 31.9381 35.8246 31.9487 36.6163 31.9381C38.0079 31.9153 38.8876 31.0496 38.9035 29.6738C38.9176 28.2223 38.9369 26.7708 38.8912 25.3193C38.8461 24.7098 38.7406 24.1064 38.5762 23.5177C38.4372 22.9318 38.6448 22.397 39.1428 22.2123C39.2658 22.1607 39.3983 22.1352 39.5317 22.1374C39.6651 22.1396 39.7966 22.1694 39.918 22.2249C40.0393 22.2804 40.1478 22.3605 40.2366 22.4601C40.3255 22.5597 40.3927 22.6766 40.4341 22.8034C40.64 23.3981 40.8564 24.035 40.8722 24.6455C40.918 26.5808 40.9883 28.5161 40.83 30.4374C40.6646 32.436 38.8472 33.9051 36.8292 33.9139C34.6106 33.9227 32.392 33.9139 30.052 33.9139C30.052 34.5491 30.0925 35.1455 30.052 35.7243C29.9713 36.719 29.5272 37.6492 28.8046 38.3374C28.082 39.0256 27.1313 39.4238 26.1339 39.456C25.0782 39.4877 24.0332 39.456 22.916 39.456C22.916 40.9937 22.9283 42.4593 22.916 43.9248C22.916 44.6022 22.9318 45.2989 22.784 45.9516C22.5905 46.8278 22.1093 47.6139 21.417 48.1847C20.7248 48.7554 19.8613 49.078 18.9644 49.1009C18.3943 49.1256 17.8208 49.1256 17.249 49.1009C16.6772 49.0763 16.2778 48.6963 16.2514 48.1649C16.2433 47.8979 16.341 47.6385 16.5232 47.4431C16.7054 47.2477 16.9574 47.1322 17.2243 47.1216C17.7064 47.0899 18.192 47.1216 18.6758 47.1093C19.8705 47.097 20.8346 46.3756 20.8944 45.2074C20.9824 43.448 21.0422 41.6781 20.8575 39.9381C20.6024 37.6157 18.9872 36.1536 16.6385 35.9847C15.1692 35.8794 13.694 35.8876 12.2259 36.0093C9.88947 36.2046 8.21278 38.059 8.14592 40.4078C8.10369 41.9015 8.11777 43.3988 8.14592 44.8942C8.15999 46.2366 9.08191 47.1163 10.405 47.1163C11.2178 47.1163 12.0324 47.1058 12.8452 47.1163C13.5595 47.1287 13.9642 47.5192 13.9536 48.1456C13.9431 48.7719 13.5648 49.0974 12.8663 49.1097C12.0095 49.1256 11.1509 49.1291 10.2941 49.1097C8.34473 49.0657 6.87389 47.9397 6.29153 46.0713C6.2524 45.9766 6.20654 45.8849 6.1543 45.7968C6.1543 43.6855 6.1543 41.5743 6.1543 39.463ZM18.5914 34.3045C20.0699 34.8731 21.3108 35.9279 22.1102 37.2955C22.1823 37.4169 22.4392 37.4714 22.6098 37.4714C23.7077 37.4872 24.8055 37.4943 25.9034 37.4714C26.1896 37.4762 26.4739 37.4231 26.7391 37.3154C27.0044 37.2076 27.2451 37.0474 27.4469 36.8443C27.6486 36.6412 27.8073 36.3995 27.9133 36.1335C28.0194 35.8676 28.0706 35.583 28.0639 35.2968C28.0762 33.7609 28.0797 32.2232 28.0639 30.6872C28.0393 28.5249 26.4365 26.6406 24.2795 26.389C22.9353 26.236 21.5647 26.2958 20.2047 26.2817C19.8001 26.2817 19.3937 26.3415 18.9556 26.3767C20.7977 29.7653 20.7114 31.7147 18.5914 34.3045ZM14.5026 33.921C15.2426 33.9234 15.9667 33.7063 16.5833 33.2971C17.1998 32.8878 17.6812 32.3049 17.9664 31.6221C18.2516 30.9392 18.3278 30.1871 18.1855 29.4609C18.0431 28.7348 17.6885 28.0671 17.1666 27.5425C16.6447 27.0179 15.9789 26.6598 15.2535 26.5137C14.528 26.3676 13.7755 26.4399 13.0912 26.7216C12.4069 27.0033 11.8215 27.4816 11.4091 28.096C10.9967 28.7105 10.7758 29.4335 10.7744 30.1735C10.7804 31.1622 11.1745 32.109 11.8718 32.81C12.5691 33.5109 13.5139 33.9099 14.5026 33.921ZM36.2662 15.0111C36.2641 14.276 36.0443 13.5581 35.6346 12.9477C35.225 12.3374 34.6437 11.8621 33.9642 11.5818C33.2847 11.3015 32.5374 11.2287 31.8165 11.3726C31.0957 11.5165 30.4336 11.8707 29.9139 12.3905C29.3941 12.9102 29.0399 13.5723 28.896 14.2931C28.7521 15.014 28.8249 15.7613 29.1052 16.4408C29.3855 17.1203 29.8608 17.7016 30.4712 18.1112C31.0815 18.5209 31.7994 18.7407 32.5345 18.7428C33.5233 18.74 34.4709 18.3459 35.1701 17.6467C35.8693 16.9475 36.2634 15.9999 36.2662 15.0111ZM25.4301 20.5356C25.4259 19.7974 25.203 19.0771 24.7896 18.4655C24.3761 17.854 23.7906 17.3788 23.1072 17.1C22.4237 16.8211 21.6729 16.7511 20.9496 16.8988C20.2264 17.0465 19.5632 17.4053 19.0438 17.9299C18.5244 18.4544 18.1722 19.1211 18.0317 19.8458C17.8911 20.5705 17.9685 21.3205 18.2541 22.0012C18.5397 22.6819 19.0207 23.2626 19.6363 23.67C20.2518 24.0774 20.9744 24.2932 21.7125 24.2901C23.8889 24.2778 25.2806 22.5289 25.4301 20.5356Z" fill="#FEAF01"/>
<path d="M53.6576 76.806C52.6336 76.5878 51.585 76.4541 50.5892 76.1409C43.1558 73.8432 38.6694 68.8324 37.3569 61.1862C35.7576 51.8843 42.2444 42.5859 51.534 40.6629C57.2485 39.4806 62.4193 40.7404 67.0042 44.3576C67.6288 44.8503 67.7467 45.4608 67.3368 45.9411C66.9268 46.4214 66.3761 46.432 65.7674 45.9411C63.8541 44.3851 61.6174 43.2761 59.2207 42.695C50.1564 40.4377 40.8053 46.6501 39.3872 55.8904C38.0325 64.7208 43.6361 72.7541 52.389 74.5276C61.2405 76.3204 70.1043 70.1045 71.496 61.1404C72.168 56.8158 71.2496 52.8713 68.8217 49.2347C68.5915 48.9037 68.489 48.5006 68.5331 48.0999C68.5912 47.8236 69.0311 47.4506 69.3073 47.4454C69.5054 47.4562 69.6992 47.5078 69.8766 47.5968C70.054 47.6857 70.2111 47.8103 70.3383 47.9626C71.4809 49.4982 72.3471 51.2212 72.8982 53.0543C73.663 55.515 73.9007 58.1093 73.5957 60.668C73.2907 63.2268 72.4499 65.6925 71.128 67.9045C69.8061 70.1165 68.0329 72.025 65.9239 73.5057C63.815 74.9864 61.4176 76.006 58.8882 76.4981C58.334 76.6072 57.7763 76.7022 57.2203 76.8025L53.6576 76.806Z" fill="#FEAF01"/>
<path d="M55.4175 72.8456C53.5367 72.8454 51.6743 72.4739 49.9373 71.7526C48.2003 71.0312 46.6227 69.9741 45.295 68.6418C43.9673 67.3096 42.9156 65.7283 42.2002 63.9888C41.4848 62.2493 41.1198 60.3857 41.1261 58.5049C41.1261 50.5613 47.539 44.2028 55.5319 44.2134C63.4192 44.2239 69.7688 50.6545 69.7583 58.6192C69.7442 66.4696 63.3207 72.8491 55.4175 72.8456ZM55.4527 46.1909C48.6949 46.1909 43.1124 51.7576 43.1054 58.5172C43.0983 65.2767 48.6703 70.8681 55.4299 70.8681C62.1894 70.8681 67.7684 65.3014 67.7772 58.5401C67.786 51.7787 62.2123 46.1997 55.4492 46.1927L55.4527 46.1909Z" fill="#FEAF01"/>
<path d="M62.5621 29.3095C62.6941 29.1635 62.775 29.0667 62.863 28.9752C63.2747 28.5477 63.7427 28.4967 64.223 28.8292C64.3275 28.902 64.4163 28.9951 64.484 29.1029C64.5518 29.2107 64.5973 29.3311 64.6176 29.4568C64.638 29.5825 64.6328 29.7111 64.6025 29.8348C64.5722 29.9585 64.5173 30.0748 64.4412 30.1769C63.8383 31.0671 63.2131 31.9427 62.5656 32.8036C62.1698 33.3314 61.686 33.3877 61.1194 32.9972C60.3277 32.443 59.5501 31.8676 58.783 31.2818C58.2428 30.8701 58.1514 30.3282 58.498 29.8443C58.8446 29.3605 59.4093 29.2989 59.9547 29.6543C60.1307 29.7722 60.3066 29.9024 60.6409 30.1346C60.4808 29.4555 60.3911 28.9154 60.2292 28.3999C59.5644 26.3036 58.2804 24.4578 56.5462 23.1055C54.812 21.7532 52.7089 20.9578 50.5139 20.824L50.1198 20.7993C49.2401 20.736 48.7738 20.3542 48.802 19.7437C48.8319 19.098 49.3562 18.7303 50.257 18.7743C51.906 18.8291 53.5286 19.205 55.0337 19.8809C59.0786 21.7477 61.5346 24.8987 62.5621 29.3095Z" fill="#FEAF01"/>
<path d="M25.0338 67.5251C24.0731 67.2032 23.2075 66.9639 22.3806 66.6243C17.6936 64.7101 14.3701 59.7346 14.4669 54.8576C14.4775 54.3069 14.6798 53.9057 15.2094 53.7527C15.4208 53.677 15.6529 53.6837 15.8595 53.7714C16.0662 53.8591 16.2323 54.0214 16.3248 54.226C16.4222 54.4673 16.4707 54.7257 16.4673 54.986C16.7611 60.2219 20.1409 64.2808 25.1464 65.398C25.3117 65.435 25.4842 65.4438 25.7604 65.4807C25.5563 65.1605 25.3874 64.9388 25.2642 64.6943C25.0197 64.2034 25.0883 63.7389 25.5369 63.4082C25.9856 63.0774 26.4941 63.1038 26.8389 63.5331C27.5268 64.3864 28.1901 65.2661 28.79 66.1827C29.1419 66.7105 28.878 67.1961 28.3959 67.5462C27.5954 68.1268 26.7967 68.7074 25.9838 69.2687C25.4208 69.6575 24.8895 69.5889 24.5235 69.1227C24.1717 68.6846 24.2667 68.1409 24.7663 67.6747C24.85 67.6157 24.9397 67.5655 25.0338 67.5251Z" fill="#FEAF01"/>
<path d="M56.6858 64.9988C56.6858 65.4439 56.7052 65.8785 56.6858 66.3201C56.6857 66.4523 56.6589 66.5831 56.607 66.7047C56.5552 66.8262 56.4794 66.9361 56.3842 67.0278C56.2889 67.1194 56.1762 67.1909 56.0527 67.238C55.9292 67.2851 55.7974 67.3068 55.6654 67.3018C55.539 67.3014 55.414 67.2759 55.2975 67.227C55.1809 67.1781 55.0753 67.1066 54.9865 67.0166C54.8977 66.9267 54.8276 66.8201 54.7801 66.703C54.7327 66.5859 54.7089 66.4605 54.71 66.3342C54.6871 65.8978 54.71 65.4545 54.71 64.997L54.1857 64.8088C53.4521 64.5581 52.8284 64.0602 52.4214 63.4003C52.0145 62.7404 51.8495 61.9596 51.9548 61.1915C51.976 60.9371 52.0923 60.7001 52.2804 60.5277C52.4686 60.3552 52.7148 60.2599 52.97 60.2608C53.5136 60.2608 53.8585 60.6338 53.9517 61.2161C54.0221 61.6595 54.0749 62.1416 54.2895 62.5181C54.5552 62.9896 55.873 63.155 56.5767 62.8893C57.2277 62.6395 57.4265 62.1222 57.3948 61.466C57.3713 61.0487 57.3713 60.6305 57.3948 60.2133C57.4265 59.7101 57.2453 59.4796 56.7175 59.5095C56.2354 59.5394 55.7516 59.5095 55.2677 59.5095C53.6473 59.5095 52.3436 58.5348 52.0727 56.9426C51.9407 56.0785 51.9645 55.1978 52.1431 54.3422C52.3595 53.2532 53.1741 52.6233 54.7118 52.055C54.7118 51.6169 54.6907 51.156 54.7118 50.6985C54.7127 50.5721 54.7388 50.4471 54.7886 50.3309C54.8384 50.2147 54.9109 50.1096 55.0018 50.0218C55.0928 49.934 55.2003 49.8652 55.3182 49.8195C55.436 49.7737 55.5619 49.752 55.6882 49.7555C55.9434 49.7538 56.1895 49.8504 56.3752 50.0254C56.561 50.2004 56.6722 50.4402 56.6858 50.695C56.7069 50.9132 56.6858 51.1349 56.6858 51.3548C56.6858 51.5747 56.6858 51.7929 56.6858 52.0585L57.277 52.2749C57.9703 52.541 58.5562 53.0287 58.9438 53.6622C59.3313 54.2957 59.4987 55.0394 59.4199 55.7779C59.3477 56.4024 58.9642 56.7895 58.4118 56.7948C57.8593 56.8001 57.4423 56.3937 57.3808 55.7392C57.2435 54.2402 56.1809 53.6121 54.7522 54.1909C54.6705 54.2231 54.5922 54.2632 54.5182 54.3105C53.9763 54.6624 53.7547 55.6899 54.0274 56.6189C54.2244 57.2909 54.7311 57.532 55.3821 57.5425C55.9099 57.5425 56.4377 57.5425 56.9655 57.5425C58.3079 57.5425 59.2686 58.3765 59.397 59.7224C59.4691 60.4666 59.4691 61.2161 59.397 61.9603C59.2527 63.4066 58.4733 64.39 57.0693 64.8457C56.948 64.8862 56.8248 64.939 56.6858 64.9988Z" fill="#FEAF01"/>
</svg>
