<?xml version="1.0" encoding="utf-8"?>
<!-- Generator: Adobe Illustrator 24.1.2, SVG Export Plug-In . SVG Version: 6.00 Build 0)  -->
<svg version="1.1" id="Layer_1" xmlns:serif="http://www.serif.com/"
	 xmlns="http://www.w3.org/2000/svg" xmlns:xlink="http://www.w3.org/1999/xlink" x="0px" y="0px" viewBox="0 0 1000 1080"
	 style="enable-background:new 0 0 1000 1080;" xml:space="preserve">
<style type="text/css">
	.st0{fill-rule:evenodd;clip-rule:evenodd;fill:#2E2F62;}
</style>
<path class="st0" d="M191.5,892.8c75.1,65.8,171.4,107.9,277.3,114.9l-0.1-125.3c-71.4-6.5-136.6-34.8-188.7-78.2L191.5,892.8
	L191.5,892.8z M808.6,892.7L720,804.2c-52.1,43.4-117.3,71.7-188.8,78.1l0.1,125.3C637.2,1000.7,733.5,958.5,808.6,892.7z
	 M32.3,571.3c7,105.8,49.2,202.1,115,277.3l88.5-88.6c-43.5-52.2-71.8-117.3-78.3-188.8L32.3,571.3L32.3,571.3z M967.7,571.2
	l-125.1,0.1c-6.5,71.5-34.9,136.7-78.4,188.8l88.6,88.4C918.6,773.3,960.8,677,967.7,571.2z M500.1,258.7
	c155.3,0,281.4,126,281.4,281.3S655.4,821.2,500.1,821.2c-155.3,0-281.4-126-281.4-281.3S344.7,258.7,500.1,258.7L500.1,258.7z
	 M468.9,383.7L468.9,383.7c-51.8,0-93.8,42-93.8,93.8s42,93.8,93.8,93.8h62.5c17.3,0,31.3,14,31.3,31.3s-14,31.3-31.3,31.3h-93.7
	c-17.3,0-31.3,14-31.3,31.3s14,31.3,31.3,31.3h31.3v31.3c0,17.3,14,31.3,31.3,31.3c17.3,0,31.3-14,31.3-31.3v-31.3
	c51.7-0.1,93.7-42,93.7-93.8c0-51.8-42-93.8-93.8-93.8h-62.5c-17.3,0-31.3-14-31.3-31.3s14-31.3,31.3-31.3h93.7
	c17.3,0,31.3-14,31.3-31.3s-14-31.3-31.3-31.3h-31.2v-31.3c0-17.3-14-31.3-31.3-31.3c-17.3,0-31.3,14-31.3,31.3V383.7z M147.2,231.5
	C81.4,306.6,39.2,403,32.3,508.8l125.3-0.1c6.4-71.4,34.8-136.6,78.3-188.7L147.2,231.5L147.2,231.5z M852.7,231.3L764.3,320
	c43.5,52.1,71.9,117.3,78.3,188.8l125.1-0.1C960.7,402.8,918.5,306.5,852.7,231.3L852.7,231.3z M468.7,72.2
	c-105.8,7-202.2,49.2-277.3,115.1l88.7,88.6c52.1-43.4,117.3-71.7,188.7-78.2L468.7,72.2L468.7,72.2z M531.2,72.2l0.1,125.4
	c71.4,6.4,136.6,34.7,188.7,78.2l88.5-88.7C733.4,121.4,637.1,79.2,531.2,72.2z"/>
</svg>
