<svg width="80" height="80" viewBox="0 0 80 80" fill="none" xmlns="http://www.w3.org/2000/svg">
<path d="M6.16133 20.6338C6.20005 20.5845 6.25812 20.5387 6.27395 20.4824C7.12035 17.2511 9.38327 15.4277 12.6809 15.3978C15.8922 15.3679 19.1036 15.3978 22.315 15.3978C22.8992 15.3978 23.4236 15.5122 23.6031 16.1775C23.7931 16.8815 23.2916 17.4359 22.4241 17.4412C20.8844 17.4535 25.4985 17.4412 23.9588 17.4412C22.1992 17.4412 14.2857 17.4271 12.526 17.4412C9.95516 17.4711 8.16207 19.2891 8.14095 21.8728C8.12863 23.3688 8.14095 24.8647 8.14095 26.3607C8.14095 34.6537 8.14095 42.9474 8.14095 51.2415V52.0511H71.7069C71.7227 51.8751 71.7509 51.7132 71.7509 51.546C71.7509 41.669 71.7509 31.792 71.7509 21.915C71.7509 19.6957 70.4593 18.0184 68.3829 17.5432C67.886 17.4543 67.3809 17.4206 66.8766 17.4429C53.8551 17.4429 71.6029 17.4429 58.5814 17.4429C58.2999 17.4429 57.9444 17.4904 57.7526 17.3444C57.4517 17.1173 57.1227 16.7688 57.0487 16.4256C56.9643 15.9751 57.2828 15.5914 57.7755 15.4735C58.0106 15.4213 58.2509 15.3965 58.4917 15.3996C71.5999 15.3996 53.9396 15.3996 67.049 15.3996C70.5384 15.3996 73.0319 17.4253 73.6513 20.7288C73.7077 21.0979 73.7301 21.4714 73.7182 21.8446C73.7182 34.0319 73.7182 46.2192 73.7182 58.4064C73.7182 61.9651 71.1262 64.6807 67.5594 64.8251C66.2414 64.8779 64.9199 64.8479 63.6001 64.8356C62.8751 64.8356 62.3842 64.3868 62.3965 63.799C62.4088 63.2112 62.8875 62.8099 63.6283 62.8028C64.9251 62.7888 66.2238 62.8275 67.5206 62.7817C69.8082 62.7025 71.5256 61.1309 71.6928 58.8376C71.8036 57.31 71.7139 55.7682 71.7139 54.186H8.27293C8.27293 55.9777 8.12687 57.764 8.3134 59.5152C8.49992 61.2664 10.2631 62.6585 12.0527 62.7677C12.4468 62.7923 12.8445 62.7958 13.2387 62.7958H58.11C58.3736 62.7854 58.6377 62.7942 58.9001 62.8222C59.4491 62.9032 59.7799 63.234 59.7904 63.7955C59.801 64.3569 59.4667 64.6895 58.9335 64.8057C58.7164 64.8385 58.4964 64.8486 58.2771 64.8356H49.7146C49.7192 64.9912 49.7374 65.1461 49.7692 65.2985C50.3288 67.0761 50.9042 68.8484 51.455 70.6295C51.5641 70.9815 51.7312 71.1187 52.1043 71.0959C52.6075 71.0624 53.1161 71.0765 53.6211 71.0959C54.325 71.1152 54.7631 71.5024 54.7719 72.0991C54.7807 72.6957 54.3672 73.0864 53.6492 73.1374C53.4962 73.148 53.3413 73.1374 53.1882 73.1374H26.7265C26.4848 73.1462 26.2428 73.1338 26.0032 73.1005C25.4261 72.9984 25.0988 72.6464 25.1234 72.0445C25.1481 71.4426 25.5475 71.1346 26.1159 71.0976C26.6842 71.0607 27.3036 71.0976 27.8966 71.073C27.9835 71.0677 28.068 71.0425 28.1436 70.9995C28.2193 70.9565 28.284 70.8968 28.333 70.8248C28.9806 68.873 29.6035 66.9142 30.2687 64.8409H29.417C23.8529 64.8409 18.2871 64.855 12.7231 64.8409C9.90765 64.8303 7.84533 63.5737 6.65052 60.9936C6.44288 60.5448 6.31619 60.0573 6.1543 59.5856C6.15899 46.5981 6.16133 33.6142 6.16133 20.6338ZM49.4877 71.0589C48.8683 69.1089 48.2559 67.2574 47.6998 65.3935C47.5661 64.9518 47.3479 64.8374 46.9098 64.8409C42.6866 64.8585 38.4634 64.8409 34.2402 64.855C33.6296 64.855 32.8606 64.679 32.4542 64.9782C32.0477 65.2774 31.9914 66.0641 31.8048 66.6449C31.3368 68.0969 30.881 69.5541 30.3971 71.0589H49.4877Z" fill="#FEAF01"/>
<path d="M40.2019 14.6746C35.7819 14.6746 31.3625 14.6746 26.9436 14.6746C26.6365 14.6795 26.3295 14.6559 26.0267 14.6042C25.6331 14.5366 25.2763 14.3314 25.02 14.0252C24.7637 13.719 24.6246 13.3317 24.6274 12.9325C24.6134 12.2726 24.6116 11.6127 24.6274 10.9546C24.6313 10.5555 24.7764 10.1708 25.0371 9.8686C25.2977 9.56642 25.6571 9.36637 26.0513 9.30397C26.3327 9.25603 26.6177 9.23306 26.9032 9.23534C35.7643 9.23534 44.6231 9.23534 53.4795 9.23534C53.9168 9.21106 54.3541 9.28252 54.7608 9.44475C56.2287 10.1627 55.6672 11.5564 55.7623 12.7213C55.8274 13.5255 55.486 14.1555 54.7397 14.4669C54.3492 14.6086 53.9352 14.6743 53.52 14.6605C49.0847 14.6799 44.6442 14.6746 40.2019 14.6746ZM53.7752 11.3206H26.6497V12.5858H53.7752V11.3206Z" fill="#FEAF01"/>
<path d="M26.6256 31.6623V33.0384H45.3698C46.4258 33.0384 46.9222 33.3622 46.9186 34.0362C46.9151 34.7101 46.417 35.041 45.3681 35.041H26.8262C25.258 35.041 24.6297 34.4128 24.6279 32.8537C24.6279 32.4137 24.6279 31.9738 24.6279 31.5339C24.6367 30.3496 25.3319 29.644 26.5006 29.6387C28.1937 29.6387 29.8886 29.6387 31.5818 29.6387H53.6895C55.1309 29.6387 55.7716 30.281 55.7751 31.7204C55.7751 32.2254 55.7751 32.7322 55.7751 33.2373C55.7557 34.2544 55.0605 35.0093 54.052 35.0304C52.6669 35.0603 51.28 35.0515 49.8948 35.0304C49.7622 35.036 49.6298 35.0143 49.5059 34.9666C49.3819 34.9189 49.2691 34.8463 49.1744 34.7533C49.0797 34.6602 49.0051 34.5487 48.9552 34.4257C48.9054 34.3026 48.8813 34.1707 48.8846 34.0379C48.8846 33.459 49.2472 33.0613 49.8825 33.049C51.155 33.0261 52.4275 33.049 53.7546 33.049V31.6659L26.6256 31.6623Z" fill="#FEAF01"/>
<path d="M40.1671 27.2545C39.5817 27.2522 39.0024 27.1346 38.4624 26.9085C37.9224 26.6824 37.4323 26.3521 37.0199 25.9366C36.1871 25.0974 35.7219 23.9618 35.7266 22.7796C35.7313 21.5975 36.2054 20.4656 37.0448 19.633C37.8842 18.8003 39.02 18.3352 40.2023 18.3399C42.6505 18.3399 44.7062 20.4146 44.6693 22.8482C44.644 24.0254 44.1585 25.1458 43.317 25.9694C42.4755 26.793 41.3448 27.2544 40.1671 27.2545ZM42.6312 22.813C42.6386 22.1704 42.3905 21.5511 41.9412 21.0914C41.492 20.6317 40.8785 20.3692 40.2358 20.3618C39.9175 20.3581 39.6016 20.4171 39.3062 20.5355C39.0107 20.6538 38.7415 20.8292 38.5138 21.0516C38.054 21.5007 37.7915 22.1141 37.7841 22.7567C37.7766 23.3994 38.0248 24.0187 38.474 24.4784C38.9232 24.9381 39.5367 25.2005 40.1795 25.208C40.8222 25.2155 41.4416 24.9673 41.9014 24.5182C42.3612 24.0691 42.6237 23.4557 42.6312 22.813Z" fill="#FEAF01"/>
<path d="M46.8907 22.7723C46.8991 21.8947 47.1675 21.0394 47.662 20.3143C48.1565 19.5893 48.855 19.0271 49.669 18.6989C50.483 18.3706 51.3761 18.291 52.2354 18.4702C53.0946 18.6493 53.8815 19.0791 54.4964 19.7053C55.1114 20.3315 55.5269 21.1259 55.6904 21.9881C55.8539 22.8503 55.758 23.7417 55.4149 24.5494C55.0718 25.3572 54.4969 26.0451 53.7628 26.5262C53.0287 27.0074 52.1685 27.2601 51.2908 27.2525C50.1144 27.2376 48.9916 26.7583 48.1673 25.919C47.343 25.0797 46.8841 23.9485 46.8907 22.7723ZM51.3154 20.3791C50.9968 20.3756 50.6808 20.4357 50.3858 20.5559C50.0908 20.6762 49.8228 20.8542 49.5975 21.0794C49.3723 21.3046 49.1943 21.5725 49.074 21.8675C48.9537 22.1624 48.8936 22.4784 48.8971 22.7969C48.898 23.4405 49.1518 24.058 49.6038 24.5163C50.0559 24.9745 50.67 25.2367 51.3136 25.2464C51.9672 25.2377 52.5912 24.9732 53.0519 24.5096C53.5126 24.0461 53.7731 23.4205 53.7777 22.767C53.7656 22.126 53.5009 21.5157 53.0411 21.0688C52.5813 20.622 51.9636 20.3747 51.3224 20.3808L51.3154 20.3791Z" fill="#FEAF01"/>
<path d="M33.4995 22.8096C33.4932 23.687 33.227 24.5428 32.7343 25.269C32.2417 25.9952 31.5448 26.559 30.7318 26.8893C29.9188 27.2196 29.026 27.3016 28.1664 27.1248C27.3068 26.948 26.5189 26.5203 25.9023 25.896C25.2857 25.2716 24.8681 24.4785 24.7021 23.6169C24.5362 22.7553 24.6295 21.8638 24.9701 21.0552C25.3108 20.2465 25.8835 19.557 26.616 19.0737C27.3485 18.5904 28.2078 18.3351 29.0854 18.3399C29.6688 18.3436 30.2457 18.4621 30.7832 18.6887C31.3208 18.9154 31.8084 19.2456 32.2183 19.6607C32.6282 20.0757 32.9523 20.5674 33.1722 21.1077C33.392 21.648 33.5032 22.2263 33.4995 22.8096ZM29.0748 20.3794C28.4314 20.3705 27.8106 20.617 27.3487 21.065C26.8868 21.513 26.6214 22.1258 26.6108 22.7691C26.6153 23.4225 26.8759 24.0482 27.3366 24.5117C27.7972 24.9753 28.4213 25.2398 29.0748 25.2485C29.7185 25.2388 30.3326 24.9766 30.7846 24.5184C31.2367 24.0601 31.4905 23.4426 31.4913 22.799C31.4949 22.4806 31.4348 22.1646 31.3146 21.8697C31.1945 21.5748 31.0167 21.3068 30.7916 21.0815C30.5666 20.8561 30.2988 20.678 30.004 20.5574C29.7092 20.4369 29.3933 20.3763 29.0748 20.3794Z" fill="#FEAF01"/>
<path d="M28.8179 41.267C27.7865 41.267 26.7552 41.2775 25.7256 41.267C25.0215 41.2564 24.6079 40.864 24.6255 40.2481C24.6414 39.6657 25.0532 39.2856 25.7203 39.282C27.8264 39.2738 29.9326 39.2738 32.0388 39.282C32.7164 39.282 33.1793 39.7272 33.1599 40.3079C33.1405 40.8887 32.7146 41.2582 32.0458 41.267C30.9687 41.2775 29.8933 41.267 28.8179 41.267Z" fill="#FEAF01"/>
<path d="M51.4827 41.2671C50.4513 41.2671 49.4199 41.2759 48.3903 41.2671C47.6863 41.2671 47.2375 40.8624 47.2393 40.2764C47.241 39.6904 47.7021 39.2822 48.3921 39.2804C50.4759 39.2734 52.5598 39.2734 54.6437 39.2804C55.3477 39.2804 55.7736 39.6676 55.7736 40.2764C55.7736 40.8853 55.3688 41.2566 54.6419 41.2654C53.5894 41.2777 52.5352 41.2671 51.4827 41.2671Z" fill="#FEAF01"/>
<path d="M28.8508 46.1415C27.8194 46.1415 26.7881 46.1415 25.7585 46.1415C25.0333 46.1415 24.625 45.7719 24.625 45.1561C24.625 44.5402 25.0386 44.1636 25.7532 44.1601C27.837 44.153 29.9209 44.153 32.0048 44.1601C32.6982 44.1601 33.1594 44.5701 33.1611 45.1508C33.1629 45.7315 32.7141 46.1327 32.0101 46.1397C30.9558 46.1485 29.9033 46.1415 28.8508 46.1415Z" fill="#FEAF01"/>
<path d="M51.5502 44.1564C52.5815 44.1564 53.6129 44.1564 54.6425 44.1564C55.3465 44.1564 55.7725 44.5418 55.7725 45.1524C55.7725 45.763 55.3588 46.1343 54.639 46.1361C52.5551 46.1431 50.4713 46.1431 48.3874 46.1361C47.6834 46.1361 47.2346 45.7331 47.2363 45.1471C47.2381 44.5611 47.6975 44.1617 48.3909 44.1564C49.4452 44.1511 50.4977 44.1564 51.5502 44.1564Z" fill="#FEAF01"/>
<path d="M40.1643 41.267C39.1312 41.267 38.0963 41.2775 37.0631 41.267C36.338 41.2582 35.935 40.8799 35.9455 40.2604C35.9561 39.641 36.3802 39.282 37.0983 39.2803C39.1658 39.2744 41.2326 39.2744 43.2989 39.2803C44.017 39.2803 44.4429 39.6569 44.45 40.2622C44.457 40.8675 44.0539 41.2582 43.3288 41.267C42.2746 41.2775 41.2203 41.267 40.1643 41.267Z" fill="#FEAF01"/>
<path d="M40.2026 44.1563C41.2357 44.1563 42.2706 44.1563 43.3037 44.1563C44.0236 44.1563 44.4477 44.5293 44.4565 45.1329C44.4653 45.7365 44.0588 46.1324 43.3372 46.136C41.2486 46.1442 39.1594 46.1442 37.0697 46.136C36.3463 46.136 35.9415 45.7541 35.9503 45.1329C35.9591 44.5118 36.3815 44.1598 37.1014 44.1545C38.1328 44.151 39.1659 44.1563 40.2026 44.1563Z" fill="#FEAF01"/>
<path d="M39.9066 59.4431C39.6001 59.4597 39.2929 59.4597 38.9863 59.4431C38.8643 59.4398 38.7443 59.4119 38.6334 59.3611C38.5224 59.3103 38.4229 59.2376 38.3407 59.1473C38.2586 59.0571 38.1955 58.9512 38.1552 58.836C38.115 58.7208 38.0984 58.5986 38.1065 58.4768C38.0959 57.9137 38.4197 57.5423 38.9652 57.493C39.6213 57.4327 40.2816 57.4327 40.9378 57.493C41.4798 57.5458 41.8 57.926 41.7807 58.4892C41.7868 58.6108 41.7684 58.7325 41.7265 58.8468C41.6846 58.9612 41.6201 59.0659 41.5368 59.1548C41.4536 59.2437 41.3532 59.3149 41.2418 59.3641C41.1304 59.4133 41.0103 59.4396 40.8885 59.4413C40.5665 59.4677 40.2357 59.4431 39.9066 59.4431Z" fill="#FEAF01"/>
<path d="M40.1501 53.8197C35.29 53.8197 30.428 53.7581 25.5678 53.8461C23.2521 53.8884 21.5206 52.1513 21.5382 49.7982C21.591 43.0446 21.591 13.8399 21.5382 7.08626C21.5206 4.62228 23.4281 3.06118 25.5291 3.07702C35.3163 3.1439 45.1036 3.10694 54.8908 3.10694C57.1889 3.10694 58.7339 4.63989 58.7356 6.95074C58.7427 13.8147 58.7427 43.1296 58.7356 49.9935C58.7356 52.2586 57.1854 53.8074 54.9277 53.8109C50.003 53.8238 45.0772 53.8268 40.1501 53.8197ZM40.1061 51.8345H54.5529C56.1648 51.8345 56.7085 51.3065 56.7085 49.7225C56.7085 43.0346 56.7085 13.8956 56.7085 7.20769C56.7085 5.65011 56.1525 5.09572 54.6145 5.09572H25.7156C24.1496 5.09572 23.5935 5.63603 23.5935 7.18305C23.5935 13.8909 23.5935 43.0498 23.5935 49.7577C23.5935 51.2818 24.1496 51.8362 25.6541 51.8362L40.1061 51.8345Z" fill="#FEAF01"/>
</svg>
