<svg width="80" height="80" viewBox="0 0 80 80" fill="none" xmlns="http://www.w3.org/2000/svg">
<path d="M6.16134 20.6338C6.20005 20.5845 6.25812 20.5387 6.27395 20.4824C7.12035 17.2511 9.38327 15.4277 12.6809 15.3978C15.8922 15.3679 19.1036 15.3978 22.315 15.3978C22.8992 15.3978 23.4236 15.5122 23.6031 16.1775C23.7931 16.8815 23.2916 17.4359 22.4241 17.4412C20.8844 17.4535 19.3447 17.4412 17.805 17.4412C16.0453 17.4412 14.2857 17.4271 12.526 17.4412C9.95516 17.4711 8.16207 19.2891 8.14095 21.8728C8.12863 23.3688 8.14095 24.8647 8.14095 26.3607C8.14095 34.6537 8.14095 42.9474 8.14095 51.2415V52.0511H71.7069C71.7227 51.8751 71.7509 51.7132 71.7509 51.546C71.7509 41.669 71.7509 31.792 71.7509 21.915C71.7509 19.6957 70.4593 18.0184 68.3829 17.5432C67.886 17.4543 67.3809 17.4206 66.8766 17.4429C53.8551 17.4429 40.8336 17.4429 27.8122 17.4429C27.5306 17.4429 27.1752 17.4904 26.9834 17.3444C26.6825 17.1173 26.3534 16.7688 26.2795 16.4256C26.195 15.9751 26.5135 15.5914 27.0063 15.4735C27.2413 15.4213 27.4817 15.3965 27.7224 15.3996C40.8307 15.3996 53.9396 15.3996 67.049 15.3996C70.5384 15.3996 73.0319 17.4253 73.6513 20.7288C73.7077 21.0979 73.7301 21.4714 73.7182 21.8446C73.7182 34.0319 73.7182 46.2192 73.7182 58.4064C73.7182 61.9651 71.1262 64.6807 67.5593 64.8251C66.2414 64.8779 64.9199 64.8479 63.6001 64.8356C62.8751 64.8356 62.3842 64.3868 62.3965 63.799C62.4088 63.2112 62.8874 62.8099 63.6283 62.8028C64.9251 62.7888 66.2238 62.8275 67.5206 62.7817C69.8082 62.7025 71.5256 61.1309 71.6928 58.8376C71.8036 57.31 71.7139 55.7682 71.7139 54.186H8.27293C8.27293 55.9777 8.12687 57.764 8.3134 59.5152C8.49992 61.2664 10.2631 62.6585 12.0527 62.7676C12.4468 62.7923 12.8445 62.7958 13.2387 62.7958H58.11C58.3736 62.7854 58.6377 62.7942 58.9001 62.8222C59.4491 62.9032 59.7799 63.234 59.7905 63.7955C59.801 64.3569 59.4667 64.6895 58.9335 64.8057C58.7164 64.8385 58.4964 64.8486 58.2771 64.8356H49.7146C49.7191 64.9912 49.7374 65.1461 49.7692 65.2985C50.3288 67.0761 50.9042 68.8484 51.4549 70.6295C51.564 70.9815 51.7312 71.1187 52.1043 71.0959C52.6075 71.0624 53.1161 71.0765 53.6211 71.0959C54.325 71.1152 54.7631 71.5024 54.7719 72.0991C54.7807 72.6957 54.3672 73.0864 53.6492 73.1374C53.4962 73.148 53.3413 73.1374 53.1882 73.1374H26.7265C26.4848 73.1462 26.2428 73.1338 26.0032 73.1005C25.4261 72.9984 25.0988 72.6464 25.1234 72.0445C25.1481 71.4426 25.5475 71.1346 26.1159 71.0976C26.6842 71.0607 27.3036 71.0976 27.8966 71.073C27.9835 71.0677 28.068 71.0425 28.1436 70.9995C28.2193 70.9565 28.2841 70.8968 28.333 70.8248C28.9806 68.873 29.6035 66.9142 30.2687 64.8409H29.417C23.8529 64.8409 18.2871 64.855 12.7231 64.8409C9.90765 64.8303 7.84533 63.5737 6.65052 60.9936C6.44288 60.5448 6.31619 60.0573 6.1543 59.5856C6.15899 46.5981 6.16134 33.6142 6.16134 20.6338ZM49.4876 71.0589C48.8682 69.1089 48.2559 67.2574 47.6998 65.3935C47.5661 64.9518 47.3479 64.8374 46.9097 64.8409C42.6866 64.8585 38.4634 64.8409 34.2402 64.855C33.6296 64.855 32.8606 64.679 32.4542 64.9782C32.0477 65.2774 31.9914 66.0641 31.8048 66.6449C31.3368 68.0969 30.881 69.5541 30.3971 71.0589H49.4876Z" fill="#FEAF01"/>
<path d="M31.3689 49.2845C26.5087 49.2845 21.6468 49.2229 16.7866 49.3109C14.4709 49.3531 12.7394 47.616 12.757 45.2629C12.8098 38.5093 12.8098 31.7557 12.757 25.002C12.7394 22.5381 14.6468 20.977 16.7479 20.9928C26.5351 21.0597 36.3223 21.0227 46.1095 21.0227C48.4077 21.0227 49.9526 22.5557 49.9544 24.8665C49.9614 31.7304 49.9614 38.5943 49.9544 45.4583C49.9544 47.7234 48.4041 49.2721 46.1465 49.2757C41.2218 49.2886 36.2959 49.2915 31.3689 49.2845ZM31.3249 47.2992H45.7717C47.3835 47.2992 47.9273 46.7712 47.9273 45.1872C47.9273 38.4993 47.9273 31.8114 47.9273 25.1235C47.9273 23.5659 47.3712 23.0115 45.8333 23.0115H16.9344C15.3683 23.0115 14.8123 23.5518 14.8123 25.0988C14.8123 31.8067 14.8123 38.5146 14.8123 45.2224C14.8123 46.7466 15.3683 47.301 16.8728 47.301L31.3249 47.2992Z" fill="#FEAF01"/>
<path d="M60.3328 32.1335C59.101 32.1335 57.8693 32.1494 56.6375 32.1335C54.8779 32.1054 53.6461 30.9227 53.5792 29.1785C53.5335 27.9061 53.5335 26.6283 53.5792 25.3558C53.6426 23.5959 54.9342 22.378 56.6991 22.3639C59.138 22.3533 61.5769 22.3533 64.0158 22.3639C65.7983 22.3744 67.0846 23.6575 67.111 25.4403C67.1286 26.6488 67.1286 27.8574 67.111 29.0659C67.0864 30.8382 65.8511 32.079 64.0862 32.1282H63.8891L60.3328 32.1335ZM60.3504 30.1412C61.5153 30.1412 62.6802 30.1412 63.8451 30.1412C64.7126 30.1412 65.0663 29.8156 65.0768 28.9744C65.0933 27.8315 65.0933 26.6887 65.0768 25.5459C65.0645 24.724 64.7671 24.4072 63.9647 24.4019C61.5481 24.3867 59.131 24.3867 56.7132 24.4019C55.9372 24.4019 55.631 24.7275 55.6222 25.4914C55.6099 26.6565 55.6116 27.8216 55.6222 28.9867C55.6222 29.8015 55.9741 30.1359 56.7906 30.1412C57.9784 30.1483 59.1644 30.1412 60.3592 30.1412H60.3504Z" fill="#FEAF01"/>
<path d="M60.6629 41.3787C62.3979 41.3787 64.1335 41.3787 65.8697 41.3787C66.3976 41.3787 66.82 41.5353 67.0276 42.0633C67.076 42.1858 67.0986 42.3169 67.0941 42.4485C67.0896 42.5801 67.0581 42.7093 67.0014 42.8282C66.9448 42.9471 66.8643 43.053 66.765 43.1394C66.6657 43.2258 66.5496 43.2909 66.424 43.3305C66.2139 43.3927 65.9956 43.4224 65.7765 43.4185C62.3932 43.4185 59.01 43.4185 55.6268 43.4185C55.069 43.4185 54.5534 43.3199 54.3545 42.7145C54.117 41.9841 54.6343 41.391 55.5229 41.3857C57.2369 41.3699 58.9508 41.3787 60.6629 41.3787Z" fill="#FEAF01"/>
<path d="M60.6844 38.8514C58.9494 38.8514 57.2143 38.8514 55.4793 38.8514C54.7068 38.8514 54.3003 38.4782 54.3179 37.8288C54.3338 37.2199 54.7473 36.8696 55.4811 36.8696C58.9511 36.8696 62.4217 36.8696 65.893 36.8696C66.6426 36.8696 67.1142 37.2621 67.1142 37.864C67.1142 38.4659 66.6514 38.8496 65.8912 38.8531C64.1544 38.8602 62.4194 38.8514 60.6844 38.8514Z" fill="#FEAF01"/>
<path d="M60.6665 47.947C58.9315 47.947 57.1965 47.947 55.4614 47.947C54.6467 47.947 54.1681 47.3979 54.3423 46.6921C54.4989 46.0568 54.9916 45.9336 55.5635 45.9353C57.6751 45.9353 59.7867 45.9353 61.8983 45.9353C63.2163 45.9353 64.5378 45.9353 65.8522 45.9353C66.6529 45.9353 67.1368 46.3401 67.1227 46.9508C67.1086 47.5615 66.6177 47.9435 65.817 47.9452C64.0926 47.9505 62.3787 47.947 60.6665 47.947Z" fill="#FEAF01"/>
<path d="M39.9066 59.4431C39.6001 59.4597 39.2929 59.4597 38.9863 59.4431C38.8643 59.4398 38.7443 59.4119 38.6334 59.3611C38.5224 59.3103 38.4229 59.2376 38.3407 59.1473C38.2586 59.0571 38.1955 58.9512 38.1552 58.836C38.115 58.7208 38.0984 58.5986 38.1065 58.4768C38.0959 57.9137 38.4197 57.5423 38.9652 57.493C39.6213 57.4327 40.2816 57.4327 40.9378 57.493C41.4798 57.5458 41.8 57.926 41.7807 58.4892C41.7868 58.6108 41.7684 58.7325 41.7265 58.8468C41.6846 58.9612 41.6201 59.0659 41.5368 59.1548C41.4536 59.2437 41.3532 59.3149 41.2418 59.3641C41.1304 59.4133 41.0103 59.4396 40.8885 59.4413C40.5665 59.4677 40.2357 59.4431 39.9066 59.4431Z" fill="#FEAF01"/>
<path d="M34.9299 42.5473H37.1436V41.7518C37.1436 37.6598 37.2298 33.5661 37.1154 29.4777C37.0309 26.4417 38.8751 25.3787 41.5533 25.7043C43.2443 25.9102 44.286 27.1334 44.2895 28.8617C44.2895 33.1736 44.2895 37.485 44.2895 41.7958V42.5086C44.5077 42.5649 44.7312 42.5561 44.835 42.6635C45.1042 42.9433 45.4562 43.2442 45.5266 43.5892C45.6198 44.0468 45.3013 44.427 44.8121 44.5519C44.5772 44.6042 44.3366 44.6272 44.096 44.6206C35.6062 44.6206 27.1164 44.6206 18.6267 44.6206C18.3859 44.6269 18.1454 44.6032 17.9105 44.5502C17.4213 44.4252 17.1046 44.0415 17.2066 43.5874C17.277 43.2355 17.6307 42.9433 17.9105 42.6652C18.0143 42.5579 18.2378 42.5667 18.456 42.5103C18.456 40.6905 18.456 38.8689 18.456 37.0456C18.456 34.8949 19.6508 33.7016 21.7993 33.7016C22.2601 33.6759 22.7223 33.69 23.1807 33.7439C23.8476 33.8578 24.4534 34.202 24.8929 34.7165C25.3324 35.2309 25.5777 35.8832 25.5861 36.5598C25.6231 38.2969 25.6002 40.0358 25.6037 41.7729C25.6037 42.0087 25.6037 42.2463 25.6037 42.5279H27.805V41.8099C27.805 38.8848 27.805 35.9591 27.805 33.0329C27.805 31.3151 28.8714 30.1218 30.5853 29.9458C31.0886 29.8969 31.5954 29.8969 32.0986 29.9458C33.846 30.1095 34.9246 31.3063 34.9264 33.0575C34.9264 35.9615 34.9264 38.8654 34.9264 41.7694C34.9299 42.0193 34.9299 42.2499 34.9299 42.5473ZM42.2782 42.5367C42.2782 41.7588 42.2782 41.0179 42.2782 40.2769C42.2782 36.5657 42.2782 32.8545 42.2782 29.1433C42.2782 27.9712 42.0213 27.723 40.8406 27.7177H40.4447C39.4469 27.7283 39.1496 28.0204 39.1496 29.0078C39.1496 33.3115 39.1496 37.6158 39.1496 41.9207V42.5473L42.2782 42.5367ZM32.9345 42.5367C32.9345 39.2808 32.9503 36.0583 32.9186 32.8357C32.9186 32.3077 32.5332 31.9557 31.9508 31.9557C31.6869 31.9557 31.4235 31.9557 31.1607 31.9557C30.0944 31.9557 29.7882 32.2585 29.7882 33.3162C29.7882 36.1944 29.7882 39.0725 29.7882 41.9507C29.7882 42.1407 29.8111 42.3326 29.8234 42.5385L32.9345 42.5367ZM23.5819 42.5473C23.5819 40.5392 23.5907 38.6049 23.5819 36.6725C23.5819 36.0688 23.1912 35.7643 22.6229 35.6939C22.3378 35.6711 22.0515 35.667 21.7659 35.6816C20.8069 35.6922 20.4638 36.0336 20.4602 37.0034C20.4602 38.6753 20.4602 40.3473 20.4602 42.0193C20.4602 42.1953 20.4919 42.3555 20.513 42.5473H23.5819Z" fill="#FEAF01"/>
</svg>
