<?xml version="1.0" encoding="utf-8"?>
<!-- Generator: Adobe Illustrator 24.1.2, SVG Export Plug-In . SVG Version: 6.00 Build 0)  -->
<svg version="1.1" id="Layer_1" xmlns:serif="http://www.serif.com/"
	 xmlns="http://www.w3.org/2000/svg" xmlns:xlink="http://www.w3.org/1999/xlink" x="0px" y="0px" viewBox="0 0 1000 1080"
	 style="enable-background:new 0 0 1000 1080;" xml:space="preserve">
<style type="text/css">
	.st0{fill-rule:evenodd;clip-rule:evenodd;fill:#2E2F62;}
</style>
<path class="st0" d="M187.5,946.3H875c17.3,0,31.3-14,31.3-31.3V352.5c0-17.3-14-31.3-31.3-31.3H750c-17.3,0-31.3,14-31.3,31.3
	v531.3h-62.5v-375c0-17.3-14-31.3-31.3-31.3H500c-17.3,0-31.3,14-31.3,31.3v375h-62.5V634.1c0-17.3-14-31.3-31.3-31.3H250
	c-17.3,0-31.3,14-31.3,31.3v249.6h-31.3c-8.3,0-16.3-3.3-22.1-9.2c-5.9-5.8-9.2-13.8-9.2-22.1V165c0-17.3-14-31.3-31.3-31.3
	s-31.3,14-31.3,31.3v687.5c0,24.9,9.9,48.7,27.5,66.3C138.8,936.4,162.6,946.3,187.5,946.3z"/>
<path class="st0" d="M312.6,165L312.6,165c-51.8,0-93.8,42-93.8,93.8s42,93.8,93.8,93.8H375c17.3,0,31.3,14,31.3,31.3
	S392.3,415,375,415h-93.8c-17.3,0-31.3,14-31.3,31.3s14,31.3,31.3,31.3h31.3v31.3c0,17.3,14,31.3,31.3,31.3
	c17.3,0,31.3-14,31.3-31.3v-31.3c51.7-0.1,93.7-42,93.7-93.8c0-51.8-42-93.8-93.8-93.8h-62.5c-17.3,0-31.3-14-31.3-31.3
	s14-31.3,31.3-31.3h93.8c17.3,0,31.3-14,31.3-31.3s-14-31.3-31.3-31.3h-31.2v-31.3c0-17.3-14-31.3-31.3-31.3
	c-17.2,0-31.3,14-31.3,31.3V165z"/>
</svg>
